<?xml version="1.0" encoding="utf-8"?>
<!-- Generator: Adobe Illustrator 16.0.0, SVG Export Plug-In . SVG Version: 6.00 Build 0)  -->
<!DOCTYPE svg PUBLIC "-//W3C//DTD SVG 1.1//EN" "http://www.w3.org/Graphics/SVG/1.1/DTD/svg11.dtd">
<svg version="1.1" id="Layer_1" xmlns="http://www.w3.org/2000/svg" xmlns:xlink="http://www.w3.org/1999/xlink" x="0px" y="0px"
	 width="512px" height="512px" viewBox="0 0 512 512" enable-background="new 0 0 512 512" xml:space="preserve">
<g>
	<g>
		<path fill="#6B625D" d="M323.473,279.479c-18.084-31.011-42.047-48.089-67.473-48.089c-0.333,0-0.664,0.015-0.997,0.021
			c-1.021-0.049-2.033-0.007-3.023,0.132c-23.924,1.702-46.326,18.565-63.454,47.937c-16.705,28.647-26.286,66.246-26.286,103.157
			c0,4.143,3.358,7.5,7.5,7.5c4.142,0,7.5-3.357,7.5-7.5c0-59.243,25.912-114.084,58.318-130.948
			c-8.774,26.025-19.208,75.157,1.301,127.915c19.343,49.764,9.307,99.81,5.77,113.963c-0.154,0.615-0.249,1.234-0.317,1.853
			c-28.434-6.612-51.505-33.694-60.663-72.744c-0.946-4.033-4.982-6.538-9.014-5.589c-4.033,0.946-6.535,4.981-5.589,9.014
			c12.239,52.184,47.155,85.902,88.954,85.902c0.727,0,1.451-0.014,2.174-0.034c0.137,0.004,0.271,0.02,0.407,0.02
			c0.567,0,1.131-0.043,1.69-0.11c24.315-1.342,46.474-14.132,62.771-36.37c17.477-23.846,26.715-55.961,26.715-92.871
			C349.758,345.724,340.177,308.125,323.473,279.479z M258.195,496.757l-0.82-0.333c3.96-16.223,14.07-69.25-6.535-122.255
			c-21.72-55.876-5.532-107.54,2.436-127.159c0.064-0.157,0.169-0.29,0.301-0.392c0.032,0.138,0.033,0.285,0,0.432
			c-4.383,19.743-12.399,71.269,7.778,123.174C282.889,425.62,266.609,476.63,258.195,496.757z M310.945,466.64
			c-9.814,13.391-22.043,22.663-35.538,27.189c9.249-25.82,20.757-75.459-0.072-129.04c-19.213-49.426-10.303-100.126-7.114-114.489
			c0.141-0.64,0.229-1.28,0.291-1.92c36.002,11.39,66.246,70.252,66.246,134.255C334.759,415.854,326.302,445.688,310.945,466.64z"
			/>
	</g>
</g>
<g>
	<g>
		<path fill="#6B625D" d="M233.174,144.037c-7.504-32.301-26.334-66.227-51.66-93.077c-2.841-3.013-7.588-3.151-10.602-0.31
			c-3.014,2.842-3.152,7.589-0.31,10.602c40.603,43.046,59.389,100.638,47.472,135.155c-11.485-24.959-37.599-67.815-88.689-92.108
			C81.168,81.373,54.129,38.08,46.99,25.358c-0.307-0.547-0.657-1.055-1.026-1.546c25.182-14.62,60.458-10.765,93.836,11.261
			c3.458,2.282,8.11,1.329,10.39-2.129c2.282-3.457,1.328-8.109-2.129-10.39C103.394-6.922,54.91-7.458,24.544,21.187
			c-0.526,0.496-1.041,1.001-1.551,1.51c-0.494,0.445-0.96,0.916-1.383,1.421C4.78,41.785-2.595,66.33,0.813,93.737
			c3.648,29.339,18.964,59.04,44.29,85.89c25.327,26.851,58.096,47.629,89.904,57.005c12.452,3.671,24.213,5.489,35.029,5.489
			c19.094-0.001,35.245-5.666,47.052-16.803c0.263-0.248,0.514-0.506,0.772-0.759c0.791-0.676,1.508-1.416,2.142-2.212
			C236.162,204.689,240.853,177.092,233.174,144.037z M169.969,226.948c-34.461-0.002-79.799-21.403-113.953-57.613
			c-22.794-24.165-37.112-51.67-40.317-77.449c-2.054-16.52,0.498-31.696,7.25-44.268c10.98,25.122,36.669,69.16,88.61,93.858
			c47.889,22.771,76.198,65.768,83.734,78.404c0.34,0.569,0.714,1.108,1.112,1.621C188.831,225.177,179.853,226.949,169.969,226.948
			z M208.471,212.51c-0.118-0.079-0.22-0.185-0.297-0.313c-10.359-17.37-39.882-60.353-90.174-84.267
			c-53.672-25.521-76.833-73.799-84.523-94.214l0.826-0.321c8.251,14.519,37.281,60.03,88.639,84.451
			c54.139,25.742,77.813,74.433,85.479,94.172C208.482,212.176,208.497,212.345,208.471,212.51z"/>
	</g>
</g>
<g>
	<g>
		<path fill="#6B625D" d="M490.393,24.119c-0.425-0.507-0.893-0.98-1.389-1.427c-0.509-0.507-1.021-1.011-1.547-1.506
			c-18.903-17.83-45.118-24.739-73.811-19.455c-29.076,5.354-57.832,22.377-83.16,49.228
			c-25.326,26.851-44.155,60.776-51.659,93.077c-7.679,33.055-2.988,60.652,13.172,78.31c0.633,0.796,1.351,1.536,2.142,2.212
			c0.258,0.253,0.51,0.511,0.772,0.759c11.758,11.091,27.8,16.771,46.998,16.771c5.468,0,11.192-0.461,17.147-1.389
			c24.219-3.775,50.886-15.341,75.084-32.565c3.374-2.402,4.163-7.085,1.762-10.459c-2.402-3.374-7.084-4.162-10.459-1.761
			c-40.217,28.626-83.754,38.212-109.844,25.579c0.396-0.511,0.769-1.048,1.107-1.615c7.536-12.635,35.844-55.631,83.733-78.403
			c51.94-24.698,77.631-68.736,88.61-93.859c6.752,12.572,9.306,27.748,7.25,44.268c-3.206,25.779-17.523,53.284-40.316,77.45
			c-2.843,3.013-2.703,7.76,0.31,10.602c3.012,2.842,7.759,2.703,10.603-0.31c25.326-26.851,40.642-56.551,44.29-85.89
			C514.595,66.331,507.221,41.786,490.393,24.119z M293.928,196.408c-11.918-34.518,6.868-92.11,47.471-135.156
			c22.793-24.165,49.416-40.064,74.964-44.768c18.567-3.419,35.754-0.822,49.691,7.305c-0.376,0.497-0.731,1.013-1.043,1.569
			c-7.139,12.722-34.178,56.015-82.394,78.942C331.527,128.593,305.413,171.448,293.928,196.408z M393.999,127.93
			c-50.292,23.914-79.815,66.896-90.174,84.266c-0.077,0.129-0.179,0.235-0.298,0.314c-0.025-0.165-0.01-0.334,0.051-0.492
			c7.666-19.739,31.34-68.43,85.479-94.172c51.358-24.421,80.39-69.932,88.641-84.451l0.826,0.321
			C470.833,54.131,447.672,102.409,393.999,127.93z"/>
	</g>
</g>
</svg>
