<?xml version="1.0" encoding="utf-8"?>
<!-- Generator: Adobe Illustrator 16.0.0, SVG Export Plug-In . SVG Version: 6.00 Build 0)  -->
<!DOCTYPE svg PUBLIC "-//W3C//DTD SVG 1.1//EN" "http://www.w3.org/Graphics/SVG/1.1/DTD/svg11.dtd">
<svg version="1.1" id="Layer_1" xmlns="http://www.w3.org/2000/svg" xmlns:xlink="http://www.w3.org/1999/xlink" x="0px" y="0px"
	 width="689px" height="689px" viewBox="51.5 -36.232 689 689" enable-background="new 51.5 -36.232 689 689" xml:space="preserve">
<circle fill="none" cx="395" cy="308.268" r="344.5"/>
<path fill="#4ABA9F" d="M601.278,350.509c3.094-14.365,4.808-29.23,4.808-44.509c0-7.522-0.424-14.933-1.189-22.254h78.146
	C671.67,134.374,546.956,16.691,394.668,16.691C234.89,16.691,105.357,146.224,105.357,306
	c0,159.776,129.532,289.309,289.309,289.309c144.645,0,264.484-106.153,285.894-244.8H601.278L601.278,350.509z"/>
<path fill="#56D8B9" d="M394.666,517.419c-116.58,0-211.417-94.838-211.417-211.419S278.086,94.582,394.666,94.582
	c116.58,0,211.42,94.838,211.42,211.418S511.247,517.419,394.666,517.419"/>
<path fill="#6B625D" d="M395,475.176c-92.034,0-166.91-74.875-166.91-166.908c0-92.034,74.875-166.909,166.91-166.909
	c92.033,0,166.909,74.875,166.909,166.909C561.909,400.303,487.033,475.176,395,475.176"/>
<path fill="#54D1B0" d="M683.976,283.746h-79.081c0.767,7.321,1.189,14.732,1.189,22.254c0,15.277-1.715,30.144-4.808,44.509h82.697
	c18.438,0,33.382-14.943,33.382-33.382C717.355,298.689,702.414,283.746,683.976,283.746"/>
<path fill="#D2BEB7" d="M255.357,258.75c-0.833,21.933-0.188,46.039,8.48,66.932c23.02,55.485,100.858,73.613,129.968,100.152
	c18.173-12.45,42.013-22.924,63.812-30.893c55.249-20.196,75.928-68.191,74.615-142.085c0.749,1.461,4.018,12.433,4.357,13.975
	c17.284,78.513-37.295,160.269-120.508,179.452c-48.181,11.106-84.639-14.849-119.419-41.778
	C255.133,372.351,236.266,300.268,255.357,258.75z"/>
<path fill="#F6F2ED" d="M296.664,404.505c34.781,26.931,71.239,52.886,119.419,41.778
	c83.214-19.185,137.792-100.939,120.508-179.452c-0.341-1.542-3.608-12.513-4.357-13.975c-3.375-13.294-7.761-18.601-14.229-31.909
	c20.319,22.423,26.86,50.034,26,79.459c-2.319,79.269-60.834,145.796-136.171,155.979c-58.979,7.974-137.764-46.794-157.855-109.736
	c-13.003-40.732-0.994-107.898,18.222-121.621c-4.757,7.888-12.299,31.25-12.841,33.721C246.857,297.5,247.892,362,296.664,404.505z
	"/>
<path fill="#D2BEB7" d="M275.545,294.083c-0.729-13.896,2.335-26.621,11.561-39.588c-0.066,69.159,6.498,78.496,71.899,102.675
	c13.934,5.153,24.681,14.295,34.933,25.61c12.86-18.326,33.298-23.211,52.006-31.226c52.162-22.355,61.787-38.776,55.223-96.938
	c8.01,11.831,10.023,22.513,10.946,33.575c-5.582,44.105-32.493,69.413-72.939,82.826c-17.271,5.729-35.484,12.671-45.517,26.18
	C352.708,363.639,287.714,359.639,275.545,294.083z"/>
<path fill="#D2BEB7" d="M321.252,275.983c-0.193-3.233-0.193-12.233-0.193-12.233s2.235,3.375,4.079,5.346
	c19.884,23.322,52.679,28.3,68.458,56.577c17.715-27.788,52.239-32.817,71.938-60.54c0.454,4.737,0.65,6.792,0.849,8.846
	c-4.535,45.558-51.115,52.038-74.006,81.008c-2.708-3.464-4.672-6.271-6.933-8.817C364.393,322.463,323.311,317.077,321.252,275.983
	z"/>
<path fill="#F6F2ED" d="M275.545,294.083c12.169,65.556,77.162,69.556,118.111,103.113c10.031-13.509,28.246-20.451,45.517-26.18
	c40.446-13.413,67.357-38.721,72.939-82.826c3.745,28.936-5.12,43.657-19.755,61.74c-12.669,15.653-33.789,26.775-52.354,34
	c-16.947,6.601-32.902,14.464-46.452,27.74c-15.477-14.476-32.85-22.991-51.182-30.894
	C305.143,364.73,273.607,327.167,275.545,294.083z"/>
<path fill="#D2BEB7" d="M354.85,269.852c-5.333-11.572-6.285-23.446-2.596-35.728c25.105,13.998,28.702,17.22,41.94,38.062
	c8.256-18.622,24.447-27.98,40.988-38.31c3.913,12.808,3.289,24.673-3.837,35.979c-13.503,8.826-28.647,15.585-37.693,31.269
	C384.118,285.428,369.306,277.869,354.85,269.852z"/>
<path fill="#F6F2ED" d="M321.252,275.983c2.058,41.094,43.14,46.479,64.191,70.187c2.26,2.548,4.225,5.354,6.934,8.817
	c22.89-28.971,69.47-35.45,74.005-81.008c0.945,35.316-9.596,51.935-42.086,65.554c-12.883,5.4-24.2,12.403-31.061,26.674
	c-6.992-16.196-21.042-22.437-35.038-28.931C328.814,323.639,319.556,308.087,321.252,275.983z"/>
<path fill="#D2BEB7" d="M371.613,212.255c5.928-15.627,14.201-8.438,22.458-2.154c5.265-2.992,9.608-9.897,16.912-5.478
	c4.94,2.99,7.457,7.749,6.095,13.862c-4.081,11.698-15.275,16.212-23.234,23.998C384.726,233.083,370.188,228.505,371.613,212.255z"
	/>
<path fill="#F6F2ED" d="M354.85,269.852c14.457,8.017,29.269,15.576,38.802,31.272c9.045-15.683,24.19-22.443,37.693-31.269
	c-7.111,13.894-17.937,16.648-26.585,25.298c-4.037,4.038-7.701,8.448-12.454,13.71C385.605,290.304,362.607,287.777,354.85,269.852
	z"/>
<path fill="#F6F2ED" d="M371.613,212.255c-1.425,16.25,13.112,20.827,22.229,30.228c7.961-7.785,19.154-12.299,23.235-23.998
	c-2.971,19.515-15.552,19.332-22.519,31.794C385.11,237.28,364.092,233.898,371.613,212.255z"/>
</svg>
