<?xml version="1.0" encoding="utf-8"?>
<!-- Generator: Adobe Illustrator 16.0.0, SVG Export Plug-In . SVG Version: 6.00 Build 0)  -->
<!DOCTYPE svg PUBLIC "-//W3C//DTD SVG 1.1//EN" "http://www.w3.org/Graphics/SVG/1.1/DTD/svg11.dtd">
<svg version="1.1" id="Layer_1" xmlns="http://www.w3.org/2000/svg" xmlns:xlink="http://www.w3.org/1999/xlink" x="0px" y="0px"
	 width="512px" height="512px" viewBox="0 0 512 512" enable-background="new 0 0 512 512" xml:space="preserve">
<g>
	<path fill="#6B625D" d="M95.319,390.625h44.263c34.564,35.155,80.6,54.469,130.033,54.469
		c100.613,0,182.469-81.855,182.469-182.469v-87.148c0-4.513-3.657-8.17-8.17-8.17H95.318c-4.513,0-8.17,3.657-8.17,8.17v24.853
		c-22.381,1.887-43.168,11.511-59.231,27.575C9.916,245.908,0,269.846,0,295.307c0,25.46,9.916,49.396,27.919,67.4
		C45.923,380.71,69.86,390.625,95.319,390.625L95.319,390.625z M39.472,239.459c14.914-14.917,34.747-23.131,55.846-23.131
		c4.513,0,8.17-3.657,8.17-8.17v-24.51h332.255v78.978c0,91.604-74.524,166.128-166.128,166.128
		c-46.083,0-88.925-18.438-120.632-51.915c-1.542-1.63-3.688-2.553-5.932-2.553H95.319c-21.095,0-40.928-8.215-55.846-23.133
		c-14.918-14.918-23.133-34.751-23.133-55.846C16.34,274.21,24.555,254.377,39.472,239.459L39.472,239.459z"/>
	<path fill="#6B625D" d="M95.319,357.944h23.322c2.921,0,5.618-1.559,7.078-4.088c1.459-2.529,1.457-5.646-0.005-8.174
		c-14.541-25.135-22.225-53.855-22.225-83.058v-21.787c0-4.513-3.657-8.17-8.17-8.17c-16.731,0-32.462,6.516-44.291,18.346
		c-11.831,11.831-18.346,27.56-18.346,44.292c0,16.73,6.516,32.461,18.347,44.292C62.858,351.429,78.589,357.944,95.319,357.944
		L95.319,357.944z M62.582,262.568c6.786-6.786,15.309-11.207,24.566-12.846v12.903c0,27.418,6.171,54.453,17.945,78.979h-9.773
		c-12.367,0-23.992-4.816-32.737-13.561c-8.745-8.745-13.561-20.371-13.561-32.737C49.021,282.939,53.837,271.312,62.582,262.568z"
		/>
	<path fill="#6B625D" d="M269.615,412.413c34.087,0,66.228-11.207,92.948-32.409c3.534-2.804,4.126-7.943,1.321-11.479
		c-2.804-3.533-7.943-4.125-11.479-1.321c-23.801,18.886-52.431,28.868-82.791,28.868c-73.583,0-133.447-59.863-133.447-133.447
		l0.001-45.975c10.692,0.904,16.956,3.603,23.999,6.637c9.022,3.887,19.249,8.292,38.635,8.292c19.387,0,29.614-4.405,38.636-8.292
		c8.669-3.734,16.154-6.959,32.171-6.959c16.019,0,23.505,3.225,32.173,6.959c9.022,3.887,19.25,8.292,38.639,8.292
		c19.387,0,29.613-4.405,38.637-8.291c7.045-3.035,13.309-5.733,24.004-6.638l-0.001,45.975c0,30.362-9.983,58.99-28.868,82.792
		c-2.805,3.535-2.213,8.675,1.322,11.479c3.532,2.806,8.672,2.213,11.479-1.321c21.201-26.72,32.408-58.861,32.408-92.949
		l0.001-54.468c0-2.167-0.86-4.244-2.393-5.778c-1.532-1.532-3.61-2.392-5.777-2.392c-19.389,0-29.616,4.405-38.64,8.292
		c-8.668,3.734-16.154,6.959-32.172,6.959c-16.019,0-23.505-3.225-32.174-6.959c-9.021-3.887-19.25-8.292-38.638-8.292
		c-19.386,0-29.613,4.405-38.635,8.292c-8.669,3.734-16.155,6.959-32.172,6.959c-16.016,0-23.502-3.225-32.169-6.959
		c-9.022-3.887-19.249-8.292-38.635-8.292c-4.512,0-8.17,3.657-8.17,8.17l-0.001,54.468
		C119.828,345.218,187.023,412.413,269.615,412.413L269.615,412.413z"/>
	<path fill="#6B625D" d="M503.83,457.458H35.404c-4.513,0-8.17,3.657-8.17,8.17c0,4.514,3.657,8.17,8.17,8.17h4.73l4.712,16.491
		c3.466,12.133,16.066,21.637,28.685,21.637h392.17c12.619,0,25.219-9.505,28.687-21.637l4.711-16.491h4.73
		c4.513,0,8.17-3.656,8.17-8.17C512,461.115,508.343,457.458,503.83,457.458L503.83,457.458z M478.677,485.799
		c-1.465,5.121-7.648,9.785-12.975,9.785H73.532c-5.327,0-11.51-4.664-12.973-9.785l-3.428-12.002h424.975L478.677,485.799z"/>
	<path fill="#6B625D" d="M225.669,119.467c19.722,19.722,45.128,31.497,67.958,31.499c14.971,0,27.818-4.937,37.158-14.276
		c12.152-12.153,16.777-30.076,13.023-50.47c-3.551-19.283-14.293-38.691-30.248-54.646c-19.724-19.723-45.13-31.499-67.959-31.499
		c-14.968,0-27.816,4.936-37.155,14.275c-12.154,12.155-16.778,30.079-13.026,50.472
		C198.971,84.104,209.714,103.512,225.669,119.467L225.669,119.467z M302.006,43.129c13.638,13.637,22.775,29.99,25.732,46.048
		c2.1,11.407,0.827,21.538-3.549,29.36l-53.196-53.195c-3.192-3.19-8.364-3.19-11.556,0c-3.19,3.192-3.19,8.364,0,11.555
		l53.204,53.202c-5.335,2.979-11.774,4.526-19.007,4.526c-18.598-0.002-39.686-9.988-56.411-26.713
		c-13.638-13.637-22.775-29.99-25.73-46.048c-2.101-11.407-0.828-21.538,3.548-29.363l21.29,21.29
		c1.596,1.595,3.688,2.392,5.778,2.392s4.182-0.797,5.778-2.392c3.191-3.192,3.191-8.364,0-11.555l-21.293-21.294
		c5.335-2.979,11.776-4.525,19.011-4.525C264.193,16.415,285.279,26.401,302.006,43.129z"/>
</g>
</svg>
