<?xml version="1.0" encoding="utf-8"?>
<!-- Generator: Adobe Illustrator 16.0.0, SVG Export Plug-In . SVG Version: 6.00 Build 0)  -->
<!DOCTYPE svg PUBLIC "-//W3C//DTD SVG 1.1//EN" "http://www.w3.org/Graphics/SVG/1.1/DTD/svg11.dtd">
<svg version="1.1" id="Layer_1" xmlns="http://www.w3.org/2000/svg" xmlns:xlink="http://www.w3.org/1999/xlink" x="0px" y="0px"
	 width="512px" height="512px" viewBox="0 0 512 512" enable-background="new 0 0 512 512" xml:space="preserve">
<g>
	<g>
		<path fill="#6B625D" d="M283.122,98.047c-0.038-12.895,3.269-18.998,7.096-26.066c4.275-7.89,9.118-16.834,9.068-33.897
			c-0.052-17.063-4.949-25.977-9.271-33.842c-2.173-3.953-7.141-5.4-11.096-3.226c-3.955,2.172-5.4,7.14-3.227,11.095
			c3.871,7.044,7.213,13.128,7.25,26.023c0.039,12.895-3.268,18.998-7.096,26.066c-4.272,7.89-9.115,16.834-9.066,33.897
			c0.051,17.064,4.947,25.978,9.268,33.841c1.487,2.707,4.283,4.238,7.168,4.238c1.33,0,2.68-0.326,3.926-1.011
			c3.955-2.172,5.399-7.14,3.228-11.095C286.501,117.027,283.16,110.944,283.122,98.047z"/>
	</g>
</g>
<g>
	<g>
		<path fill="#6B625D" d="M228.655,98.209c-0.038-12.895,3.268-18.998,7.096-26.066c4.275-7.89,9.118-16.834,9.068-33.897
			c-0.051-17.063-4.949-25.977-9.27-33.842c-2.172-3.954-7.14-5.401-11.095-3.226c-3.955,2.172-5.4,7.14-3.227,11.095
			c3.87,7.044,7.213,13.128,7.251,26.023s-3.268,18.998-7.096,26.066c-4.274,7.89-9.117,16.834-9.068,33.897
			c0.051,17.063,4.948,25.977,9.268,33.841c1.486,2.707,4.283,4.239,7.168,4.239c1.33,0,2.679-0.325,3.926-1.011
			c3.956-2.172,5.4-7.14,3.228-11.094C232.034,117.188,228.693,111.105,228.655,98.209z"/>
	</g>
</g>
<g>
	<g>
		<circle fill="#6B625D" cx="103.489" cy="343.149" r="8.17"/>
	</g>
</g>
<g>
	<g>
		<circle fill="#6B625D" cx="136.17" cy="375.83" r="8.17"/>
	</g>
</g>
<g>
	<g>
		<path fill="#6B625D" d="M487.489,408.506h-24.511v-49.021c0-36.397-9.577-72.069-27.673-103.398l3.517-20.715l22.946-22.951
			h20.272c16.519,0,29.957-13.439,29.957-29.957s-13.438-29.957-29.957-29.957h-2.723v-2.723c0-16.518-13.438-29.957-29.957-29.957
			c-16.52,0-29.957,13.439-29.957,29.957v20.272L396.458,193l-14.261,2.421c-36.424-28.087-79.973-42.917-126.196-42.917
			c-75.394,0-141.491,40.525-177.68,100.932c-0.448,0.566-0.816,1.193-1.101,1.861c-17.915,30.621-28.198,66.223-28.198,104.188
			v24.511c0,4.513,3.658,8.17,8.17,8.17c4.512,0,8.17-3.657,8.17-8.17v-24.511c0-33.802,8.853-65.568,24.346-93.124
			c0.184-0.002,0.363-0.016,0.549-0.016c10.977,0,16.09,4.032,22.563,9.139c7.145,5.635,16.036,12.648,32.682,12.648
			s25.537-7.013,32.682-12.648c6.472-5.106,11.585-9.139,22.562-9.139c10.978,0,16.09,4.032,22.563,9.139
			c5.917,4.668,13.049,10.268,24.778,12.058c-0.157,2.177-0.258,4.368-0.258,6.582c0,49.555,40.315,89.872,89.872,89.872
			c43.995,0,81.251-31.449,88.586-74.777l4.424-26.061c10.455,23.94,15.926,49.925,15.926,76.327v49.021H24.511
			C10.995,408.506,0,419.502,0,433.016c0,13.516,10.995,24.512,24.511,24.512h10.451l5.959,17.878
			c6.839,20.518,29.139,36.591,50.766,36.591h328.624c21.629,0,43.928-16.072,50.767-36.591l5.959-17.878h10.451
			c13.516,0,24.511-10.996,24.511-24.512C511.999,419.502,501.005,408.506,487.489,408.506z M233.428,262.652
			c-7.145-5.635-16.036-12.649-32.682-12.649c-16.645,0-25.537,7.013-32.682,12.649c-6.472,5.105-11.585,9.139-22.562,9.139
			s-16.09-4.033-22.563-9.139c-5.696-4.492-12.517-9.851-23.476-11.842c34.47-49.5,91.779-81.964,156.537-81.964
			c37.279,0,72.667,10.474,103.413,30.443l-36.804,6.247c-35.625,6.031-63.2,32.293-71.888,65.891
			C243.186,270.334,238.765,266.861,233.428,262.652z M425.424,225.659c-1.198,1.198-1.994,2.74-2.276,4.41l-12.972,76.418
			c-5.999,35.441-36.479,61.168-72.474,61.168c-40.546,0-73.532-32.986-73.532-73.532c0-4.291,0.376-8.499,1.08-12.602
			c0.032-0.158,0.053-0.317,0.075-0.478c5.366-30.087,28.957-54.139,60.015-59.396l72.257-12.265l4.719,4.72
			c1.596,1.597,3.688,2.394,5.778,2.394s4.182-0.796,5.776-2.391c3.19-3.191,3.192-8.363,0.002-11.554l-1.928-1.929l21.405-21.406
			c1.533-1.533,2.394-3.61,2.394-5.778v-23.657c0-7.509,6.107-13.617,13.617-13.617c7.509,0,13.616,6.108,13.616,13.617v10.895
			c0,4.512,3.658,8.169,8.171,8.169h10.894c7.509,0,13.617,6.108,13.617,13.617c0,7.509-6.108,13.617-13.617,13.617h-23.657
			c-2.167,0-4.245,0.861-5.777,2.393L425.424,225.659z M487.489,441.186h-16.147c-0.036-0.001-0.07,0-0.106,0H106.213
			c-4.512,0-8.17,3.657-8.17,8.171c0,4.513,3.658,8.17,8.17,8.17h353.6l-4.236,12.71c-4.593,13.776-20.741,25.418-35.266,25.418
			H91.688c-14.523,0-30.672-11.642-35.265-25.418l-4.237-12.71h21.345c4.512,0,8.17-3.657,8.17-8.17c0-4.514-3.658-8.171-8.17-8.171
			h-49.02c-4.506,0-8.17-3.664-8.17-8.17s3.665-8.17,8.17-8.17H487.49c4.506,0,8.17,3.665,8.17,8.17
			C495.66,437.522,491.995,441.186,487.489,441.186z"/>
	</g>
</g>
<g>
	<g>
		<circle fill="#6B625D" cx="338.247" cy="326.264" r="8.17"/>
	</g>
</g>
</svg>
