<?xml version="1.0" encoding="iso-8859-1"?>
<!-- Generator: Adobe Illustrator 19.0.0, SVG Export Plug-In . SVG Version: 6.00 Build 0)  -->
<svg xmlns="http://www.w3.org/2000/svg" xmlns:xlink="http://www.w3.org/1999/xlink" version="1.1" id="Layer_1" x="0px" y="0px" viewBox="0 0 512 512" style="enable-background:new 0 0 512 512;" xml:space="preserve" width="512px" height="512px">
<g>
	<g>
		<rect x="246.626" y="9.815" width="16.126" height="494.52" fill="#6b625d"/>
	</g>
</g>
<g>
	<g>
		<path d="M85.017,0.677c-31.575,0-57.263,25.687-57.263,57.262s25.688,57.263,57.263,57.263c31.574,0,57.262-25.689,57.262-57.263    S116.591,0.677,85.017,0.677z M85.017,99.077c-22.683,0-41.138-18.455-41.138-41.138s18.454-41.137,41.138-41.137    s41.137,18.453,41.137,41.137S107.7,99.077,85.017,99.077z" fill="#6b625d"/>
	</g>
</g>
<g>
	<g>
		<path d="M83.754,126.019C37.572,126.019,0,163.591,0,209.773v98.749h25.231v202.8h117.046v-202.8h25.231v-98.749    C167.509,163.592,129.937,126.019,83.754,126.019z M151.384,292.397h-25.231v202.8H41.357v-202.8H16.126v-82.624    c0-37.291,30.34-67.629,67.63-67.629c37.29,0,67.629,30.339,67.629,67.629V292.397z" fill="#6b625d"/>
	</g>
</g>
<g>
	<g>
		<rect x="77.304" y="154.946" width="16.126" height="16.126" fill="#6b625d"/>
	</g>
</g>
<g>
	<g>
		<rect x="77.304" y="187.197" width="16.126" height="96.754" fill="#6b625d"/>
	</g>
</g>
<g>
	<g>
		<path d="M426.88,0.677c-31.575,0-57.263,25.687-57.263,57.262s25.688,57.263,57.263,57.263c31.574,0,57.262-25.689,57.262-57.263    S458.454,0.677,426.88,0.677z M426.88,99.077c-22.683,0-41.138-18.455-41.138-41.138s18.454-41.137,41.138-41.137    s41.136,18.453,41.136,41.137S449.564,99.077,426.88,99.077z" fill="#6b625d"/>
	</g>
</g>
<g>
	<g>
		<path d="M486.769,308.522h22.604v-98.749c0-46.182-37.572-83.754-83.754-83.754s-83.754,37.573-83.754,83.754v98.749h22.605    l-25.231,88.308h40.472v114.492h91.817h0.001V396.831H512L486.769,308.522z M455.401,380.705v114.492h-59.566h0V380.705h-35.219    l25.231-88.308h-27.858v-82.624c0-37.291,30.339-67.629,67.629-67.629s67.629,30.339,67.629,67.629v82.624h-27.858l25.231,88.308    H455.401z" fill="#6b625d"/>
	</g>
</g>
<g>
	<g>
		<rect x="415.945" y="154.946" width="16.126" height="16.126" fill="#6b625d"/>
	</g>
</g>
<g>
</g>
<g>
</g>
<g>
</g>
<g>
</g>
<g>
</g>
<g>
</g>
<g>
</g>
<g>
</g>
<g>
</g>
<g>
</g>
<g>
</g>
<g>
</g>
<g>
</g>
<g>
</g>
<g>
</g>
</svg>
