<?xml version="1.0" encoding="utf-8"?>
<!-- Generator: Adobe Illustrator 16.0.0, SVG Export Plug-In . SVG Version: 6.00 Build 0)  -->
<!DOCTYPE svg PUBLIC "-//W3C//DTD SVG 1.1//EN" "http://www.w3.org/Graphics/SVG/1.1/DTD/svg11.dtd">
<svg version="1.1" id="Layer_1" xmlns="http://www.w3.org/2000/svg" xmlns:xlink="http://www.w3.org/1999/xlink" x="0px" y="0px"
	 width="792px" height="792px" viewBox="0 0 792 612" enable-background="new 0 0 792 612" xml:space="preserve">
<path fill="#6B625D" d="M603.658,107.213C547.812,51.45,473.685,20.739,394.933,20.739c-77.583,0-151.194,30.301-207.342,85.338
	c-1.005,0.62-1.853,1.463-2.468,2.455c-55.021,55.179-85.318,128.795-85.318,207.335c0,162.734,132.394,295.128,295.128,295.128
	c77.095,0,150.282-29.93,206.294-84.317l0.115,0.117l0.011-0.01l0.502,0.509l0.044-0.06l0.006,0.006l1.633-2.198l0.933-0.944
	c55.596-56.266,86.214-130.221,86.214-208.258C690.376,237.032,659.469,162.94,603.658,107.213z M371.998,232.297
	c0-25.62,12.109-44.763,22.936-44.763s22.935,19.143,22.935,44.763c0,1.228,0,2.411-0.078,3.504
	c-8.531,6.398-16.337,15.049-22.813,25.266c-6.064-9.842-14.059-18.854-22.931-25.82
	C371.998,234.338,371.998,233.276,371.998,232.297z M420.813,362.872c-3.914,2.696-7.722,5.896-11.396,9.578v-4.89
	c0.664-4.019,1.906-8.24,3.649-12.436L420.813,362.872z M464.336,352.936c-2.736-0.674-5.637-1.015-8.666-1.015
	c-1.308,0-2.642,0.065-3.986,0.194l-22.141-22.139c3.977-3.942,8.488-7.363,12.965-9.804c4.234-2.259,8.309-3.453,11.782-3.453
	c2.22,0,4.078,0.469,5.738,1.464C467.361,322.429,469.061,337.267,464.336,352.936z M417.857,409.76
	c7.005-11.632,15.375-20.312,24.222-25.121c0.122-0.047,0.241-0.095,0.358-0.144l24.415,24.415
	c-1.008,7.597-4.003,15.984-8.725,24.392c-7.125,11.86-15.663,20.655-24.706,25.442c-6.899,3.682-13.393,4.466-17.426,2.044
	c-4.343-2.604-5.605-7.016-5.97-9.538l-0.593-18.971C410.457,425.779,413.216,418.406,417.857,409.76z M455.083,287.123
	c-8.434,0-17.184,2.345-26.049,6.99c-7.45,4.011-14.033,9.417-18.993,14.116v-5.564c1.01-6.528,3.773-13.934,8.44-22.626
	c7.07-11.742,15.53-20.472,24.474-25.256c4.271-1.974,8.094-2.975,11.364-2.975c2.37,0,4.456,0.504,6.376,1.54
	c7.339,4.305,8.999,19.21,4.205,34.929C461.753,287.51,458.466,287.123,455.083,287.123z M325.587,353.128
	c-4.802-15.746-3.139-30.667,4.188-34.909c1.679-0.948,3.664-1.43,5.899-1.43c11.663,0,26.927,12.053,36.256,28.59
	c4.618,8.576,7.482,16.039,8.519,22.188v5.359c-13.737-13.286-29.969-20.993-44.833-20.993
	C332.166,351.933,328.807,352.334,325.587,353.128z M323.188,264.069l23.947,24.17c-3.992-0.97-7.963-1.465-11.848-1.465
	c-3.335,0-6.598,0.361-9.742,1.078C322.726,279.196,321.917,270.825,323.188,264.069z M329.268,383.012l0.637-0.425
	c0.628-0.471,1.846-1.097,5.157-1.097c11.523,0,26.771,11.848,36.274,28.181c4.696,8.732,7.475,16.167,8.489,22.713v17.92
	c-1.37,5.047-3.362,8.416-5.799,9.771c-1.679,0.948-3.664,1.43-5.899,1.43c-11.662,0-26.939-12.074-36.324-28.71
	C319.02,410.128,320.207,388.366,329.268,383.012z M488.991,306.462c11.899-27.537,10.064-54.931-4.736-70.834V125.029
	c0-8.664-7.489-14.483-14.483-14.483c-7.58,0-14.483,6.903-14.483,14.483v97.772c-2.508,0.004-5.013,0.213-7.569,0.633
	c-2.457-29.413-17.127-53.469-37.678-61.681V87.61c0-8.664-7.489-14.484-14.485-14.484c-7.58,0-14.483,6.903-14.483,14.484v73.417
	c-20.081,7.738-34.71,31.845-37.554,61.837c-2.792-0.458-5.614-0.692-8.316-0.684v-97.151c0-8.664-7.489-14.483-14.484-14.483
	c-7.58,0-14.484,6.903-14.484,14.483v80.461l-88.282-87.759c48.814-43.899,111.495-68.023,176.981-68.023
	c70.822,0,137.586,27.76,187.994,78.167c50.406,50.407,78.167,117.171,78.167,187.993c0,65.502-24.136,128.195-68.053,177.013
	l-96.368-95.786c-0.666-9.726-3.255-18.369-7.705-25.735C499.351,347.271,499.348,323.337,488.991,306.462z M300.346,241.805
	c-10.221,16.647-10.279,40.38-0.07,64.616c-10.37,16.861-10.394,40.784-0.034,64.865c-12.021,19.445-9.85,49.838,5.677,76.543
	c15.401,26.786,39.234,43.426,62.197,43.426c4.252,0,8.127-0.5,11.709-1.519v55.013c0,8.664,7.489,14.484,14.483,14.484
	c7.581,0,14.484-6.903,14.484-14.484v-55.819c3.805,1.095,7.799,1.647,11.935,1.647c8.091,0,16.585-2.102,25.31-6.275l0.165-0.084
	c14.182-7.428,27.136-20.338,36.511-36.41l0.083-0.148c2.943-5.468,5.231-10.256,6.996-14.665l82.103,81.029
	c-48.808,43.89-111.479,68.006-176.961,68.006c-70.822,0-137.586-27.761-187.993-78.167
	c-50.407-50.408-78.167-117.172-78.167-187.994c0-65.502,24.135-128.195,68.051-177.013L300.346,241.805z"/>
</svg>
