<?xml version="1.0" encoding="utf-8"?>
<!-- Generator: Adobe Illustrator 16.0.0, SVG Export Plug-In . SVG Version: 6.00 Build 0)  -->
<!DOCTYPE svg PUBLIC "-//W3C//DTD SVG 1.1//EN" "http://www.w3.org/Graphics/SVG/1.1/DTD/svg11.dtd">
<svg version="1.1" id="Capa_1" xmlns="http://www.w3.org/2000/svg" xmlns:xlink="http://www.w3.org/1999/xlink" x="0px" y="0px"
	 width="512px" height="512px" viewBox="0 0 512 512" enable-background="new 0 0 512 512" xml:space="preserve">
<g>
	<path fill="#6B625D" d="M258.963,222.519c32.302,0,58.593-26.292,58.593-58.593s-26.291-58.593-58.593-58.593
		c-32.301,0-58.592,26.292-58.592,58.593S226.653,222.519,258.963,222.519z M258.963,122.074c23.077,0,41.852,18.775,41.852,41.852
		s-18.774,41.852-41.852,41.852s-41.852-18.775-41.852-41.852S235.886,122.074,258.963,122.074z"/>
	<path fill="#6B625D" d="M420.327,314.593h-59.94l25.505-36.829c48.172-64.21,41.199-169.752-14.907-225.851
		c-30.31-30.317-70.621-47.017-113.503-47.017c-42.873,0-83.185,16.699-113.502,47.017c-56.106,56.099-63.079,161.649-15.1,225.599
		l25.68,37.09H91.672L0,507.111h512L420.327,314.593z M142.464,267.719c-43.518-58.032-37.282-153.346,13.359-203.978
		c27.153-27.154,63.263-42.112,101.667-42.112c38.402,0,74.504,14.958,101.666,42.112c50.642,50.632,56.877,145.954,13.167,204.229
		L257.481,433.812l-82.557-119.22l0,0L142.464,267.719z M102.252,331.334h63.9l91.329,131.892l91.321-131.892h60.944l75.735,159.037
		H26.518L102.252,331.334z"/>
</g>
</svg>
