<?xml version="1.0" encoding="utf-8"?>
<!-- Generator: Adobe Illustrator 16.0.0, SVG Export Plug-In . SVG Version: 6.00 Build 0)  -->
<!DOCTYPE svg PUBLIC "-//W3C//DTD SVG 1.1//EN" "http://www.w3.org/Graphics/SVG/1.1/DTD/svg11.dtd">
<svg version="1.1" id="Layer_1" xmlns="http://www.w3.org/2000/svg" xmlns:xlink="http://www.w3.org/1999/xlink" x="0px" y="0px"
	 width="512px" height="512px" viewBox="0 0 512 512" enable-background="new 0 0 512 512" xml:space="preserve">
<g>
	<path fill="none" d="M290.135,294.4h136.533V157.867H290.135V294.4z M384.002,183.467c0-5.12,3.412-8.533,8.533-8.533
		c5.119,0,8.532,3.413,8.532,8.533v25.6c0,5.119-3.413,8.533-8.532,8.533c-5.121,0-8.533-3.413-8.533-8.533V183.467z
		 M349.868,251.733c0-5.12,3.413-8.533,8.532-8.533c5.121,0,8.533,3.413,8.533,8.533v17.067c0,5.119-3.412,8.532-8.533,8.532
		c-5.119,0-8.532-3.413-8.532-8.532V251.733z M315.734,183.467c0-5.12,3.413-8.533,8.533-8.533s8.533,3.413,8.533,8.533v25.6
		c0,5.119-3.413,8.533-8.533,8.533s-8.533-3.413-8.533-8.533V183.467z"/>
	<path fill="#6B625D" d="M435.201,140.8h-153.6c-5.12,0-8.533,3.413-8.533,8.533v153.6c0,5.12,3.413,8.533,8.533,8.533h153.6
		c5.119,0,8.533-3.413,8.533-8.533v-153.6C443.734,144.213,440.32,140.8,435.201,140.8z M426.668,294.4H290.135V157.867h136.533
		V294.4z"/>
	<path fill="#6B625D" d="M392.535,217.6c5.119,0,8.532-3.414,8.532-8.533v-25.6c0-5.12-3.413-8.533-8.532-8.533
		c-5.121,0-8.533,3.413-8.533,8.533v25.6C384.002,214.187,387.414,217.6,392.535,217.6z"/>
	<path fill="#6B625D" d="M324.268,217.6c5.12,0,8.533-3.414,8.533-8.533v-25.6c0-5.12-3.413-8.533-8.533-8.533
		s-8.533,3.413-8.533,8.533v25.6C315.734,214.187,319.147,217.6,324.268,217.6z"/>
	<path fill="#6B625D" d="M358.4,277.333c5.121,0,8.533-3.413,8.533-8.532v-17.067c0-5.12-3.412-8.533-8.533-8.533
		c-5.119,0-8.532,3.413-8.532,8.533v17.067C349.868,273.92,353.281,277.333,358.4,277.333z"/>
	<path fill="none" d="M221.866,157.866H85.333V294.4h136.533V157.866z M127.999,209.067c0,5.12-3.412,8.532-8.533,8.532
		c-5.119,0-8.532-3.414-8.532-8.532v-25.6c0-5.12,3.413-8.533,8.532-8.533c5.121,0,8.533,3.413,8.533,8.533V209.067z
		 M162.132,268.801c0,5.119-3.413,8.531-8.532,8.531c-5.121,0-8.533-3.412-8.533-8.531v-17.068c0-5.12,3.412-8.532,8.533-8.532
		c5.119,0,8.532,3.412,8.532,8.532V268.801z M196.266,209.067c0,5.12-3.413,8.532-8.533,8.532s-8.533-3.414-8.533-8.532v-25.6
		c0-5.12,3.413-8.533,8.533-8.533s8.533,3.413,8.533,8.533V209.067z"/>
	<path fill="#6B625D" d="M448.001,72.533H256v0H64c-16.214,0-29.866,13.654-29.866,29.866v247.466
		c0,16.215,13.654,29.867,29.866,29.867h192h0h192c16.212,0,29.866-13.652,29.866-29.866V102.399
		C477.867,86.187,464.215,72.533,448.001,72.533z M460.801,349.867c0,6.827-5.973,12.8-12.8,12.8H256v-0.001H64
		c-6.827,0-12.8-5.973-12.8-12.799V102.399c0-6.827,5.973-12.8,12.8-12.8h192v0h192.001c6.827,0,12.8,5.973,12.8,12.8V349.867z"/>
	<path fill="#6B625D" d="M460.801,38.399H256v0H51.2C23.04,38.399,0,61.44,0,89.599v273.067c0,28.158,23.04,51.199,51.2,51.199H256
		v0.001h204.801c28.16,0,51.2-23.041,51.2-51.2V89.6C512.001,61.44,488.961,38.399,460.801,38.399z M494.934,362.666
		c0,18.773-15.359,34.134-34.133,34.134H256v-0.001H51.2c-18.773,0-34.133-15.359-34.133-34.133V89.599
		c0-18.773,15.359-34.133,34.133-34.133H256v0h204.801c18.773,0,34.133,15.36,34.133,34.133V362.666z"/>
	<path fill="#6B625D" d="M68.266,149.333v153.599c0,5.121,3.414,8.533,8.533,8.533h153.6c5.12,0,8.533-3.412,8.533-8.533V149.333
		c0-5.12-3.413-8.533-8.533-8.533h-153.6C71.68,140.8,68.266,144.212,68.266,149.333z M85.333,157.866h136.533V294.4H85.333V157.866
		z"/>
	<path fill="#6B625D" d="M119.465,217.599c-5.119,0-8.532-3.414-8.532-8.532v-25.6c0-5.12,3.413-8.533,8.532-8.533
		c5.121,0,8.533,3.413,8.533,8.533v25.6C127.999,214.187,124.586,217.599,119.465,217.599z"/>
	<path fill="#6B625D" d="M187.733,217.599c-5.12,0-8.533-3.414-8.533-8.532v-25.6c0-5.12,3.413-8.533,8.533-8.533
		s8.533,3.413,8.533,8.533v25.6C196.266,214.187,192.853,217.599,187.733,217.599z"/>
	<path fill="#6B625D" d="M153.6,277.332c-5.121,0-8.533-3.412-8.533-8.531v-17.068c0-5.12,3.412-8.532,8.533-8.532
		c5.119,0,8.532,3.412,8.532,8.532v17.068C162.132,273.92,158.719,277.332,153.6,277.332z"/>
</g>
</svg>
