<?xml version="1.0" encoding="utf-8"?>
<!-- Generator: Adobe Illustrator 16.0.0, SVG Export Plug-In . SVG Version: 6.00 Build 0)  -->
<!DOCTYPE svg PUBLIC "-//W3C//DTD SVG 1.1//EN" "http://www.w3.org/Graphics/SVG/1.1/DTD/svg11.dtd">
<svg version="1.1" id="Capa_1" xmlns="http://www.w3.org/2000/svg" xmlns:xlink="http://www.w3.org/1999/xlink" x="0px" y="0px"
	 width="512px" height="512px" viewBox="0 0 512 512" enable-background="new 0 0 512 512" xml:space="preserve">
<g>
	<path fill="#6B625D" d="M494.348,313.896l-25.033-25.042c-9.911-9.902-27.187-9.902-37.098,0L296.98,424.089l-18.636,68.352
		l-4.561,4.561c-3.409,3.409-3.418,8.91-0.053,12.346l-0.044,0.176l0.167-0.044c1.704,1.669,3.919,2.53,6.142,2.53
		c2.25,0,4.499-0.861,6.213-2.574l4.568-4.569l68.344-18.637l135.227-135.235C504.575,340.756,504.575,324.123,494.348,313.896z
		 M317.27,428.649l90.002-90.002l37.282,37.282l-90.003,90.002L317.27,428.649z M309.344,445.572l28.293,28.294l-38.907,10.614
		L309.344,445.572z M481.923,338.56l-24.945,24.945l-37.281-37.281l24.945-24.946c3.269-3.277,8.971-3.277,12.239,0l25.042,25.042
		C485.297,329.686,485.297,335.186,481.923,338.56z"/>
	<path fill="#6B625D" d="M71.479,316.32h228.454c4.85,0,8.787-3.928,8.787-8.786c0-4.859-3.938-8.787-8.787-8.787H71.479
		c-4.85,0-8.787,3.928-8.787,8.787C62.693,312.393,66.629,316.32,71.479,316.32z"/>
	<path fill="#6B625D" d="M264.787,351.468H71.479c-4.85,0-8.787,3.927-8.787,8.786s3.937,8.787,8.787,8.787h193.308
		c4.85,0,8.786-3.928,8.786-8.787S269.646,351.468,264.787,351.468z"/>
	<path fill="#6B625D" d="M71.479,158.16h114.227c4.85,0,8.787-3.928,8.787-8.787s-3.937-8.787-8.787-8.787H71.479
		c-4.85,0-8.787,3.928-8.787,8.787S66.629,158.16,71.479,158.16z"/>
	<path fill="#6B625D" d="M185.707,421.761c4.85,0,8.787-3.928,8.787-8.787c0-4.858-3.937-8.786-8.787-8.786H71.479
		c-4.85,0-8.787,3.928-8.787,8.786c0,4.859,3.937,8.787,8.787,8.787H185.707z"/>
	<path fill="#6B625D" d="M326.293,193.307H71.479c-4.85,0-8.787,3.928-8.787,8.787s3.937,8.787,8.787,8.787h254.813
		c4.851,0,8.787-3.928,8.787-8.787S331.152,193.307,326.293,193.307z"/>
	<path fill="#6B625D" d="M71.479,263.601h123.014c4.85,0,8.787-3.928,8.787-8.787c0-4.859-3.937-8.787-8.787-8.787H71.479
		c-4.85,0-8.787,3.927-8.787,8.787C62.693,259.673,66.629,263.601,71.479,263.601z"/>
	<path fill="#6B625D" d="M335.08,254.814c0-4.859-3.937-8.787-8.787-8.787h-61.506c-4.851,0-8.787,3.927-8.787,8.787
		c0,4.859,3.937,8.787,8.787,8.787h61.506C331.152,263.601,335.08,259.673,335.08,254.814z"/>
	<path fill="#6B625D" d="M235.878,261.043c1.582-1.66,2.548-3.953,2.548-6.238s-0.967-4.569-2.548-6.239
		c-3.339-3.251-9.226-3.251-12.477,0c-1.582,1.669-2.548,3.954-2.548,6.239c0,2.38,0.966,4.578,2.548,6.238
		c1.669,1.591,3.954,2.549,6.239,2.549C231.924,263.592,234.218,262.634,235.878,261.043z"/>
	<path fill="#6B625D" d="M229.64,492.055H27.546V70.293h61.507v17.573c0,4.859,3.936,8.787,8.787,8.787h202.094
		c4.85,0,8.787-3.927,8.787-8.787V70.293h61.506v193.307c0,4.858,3.938,8.786,8.787,8.786s8.787-3.928,8.787-8.786V61.507
		c0-4.859-3.938-8.787-8.787-8.787h-70.293V35.146c0-4.859-3.938-8.787-8.787-8.787h-52.72V8.787c0-4.859-3.937-8.787-8.787-8.787
		h-79.08c-4.851,0-8.787,3.928-8.787,8.787V26.36H97.84c-4.851,0-8.787,3.928-8.787,8.787V52.72H18.76
		c-4.851,0-8.787,3.928-8.787,8.787v439.334c0,4.859,3.936,8.787,8.787,8.787h210.88c4.85,0,8.787-3.928,8.787-8.787
		S234.499,492.055,229.64,492.055z M168.133,17.573h61.507v17.573V52.72h-61.507V35.146V17.573z M106.626,43.934h43.933v17.573
		c0,4.859,3.937,8.787,8.787,8.787h79.08c4.85,0,8.787-3.928,8.787-8.787V43.934h43.933v17.573V79.08h-184.52V61.507V43.934
		L106.626,43.934z"/>
</g>
</svg>
