<?xml version="1.0" encoding="utf-8"?>
<!-- Generator: Adobe Illustrator 16.0.0, SVG Export Plug-In . SVG Version: 6.00 Build 0)  -->
<!DOCTYPE svg PUBLIC "-//W3C//DTD SVG 1.1//EN" "http://www.w3.org/Graphics/SVG/1.1/DTD/svg11.dtd">
<svg version="1.1" id="Capa_1" xmlns="http://www.w3.org/2000/svg" xmlns:xlink="http://www.w3.org/1999/xlink" x="0px" y="0px"
	 width="512px" height="512px" viewBox="0 0 512 512" enable-background="new 0 0 512 512" xml:space="preserve">
<g>
	<path fill="#6B625D" d="M491.922,345.139c-5.542,0-10.039,4.487-10.039,10.039c0,11.073-9.006,20.078-20.079,20.078
		s-20.078-9.005-20.078-20.078h-20.078c0,11.073-9.006,20.078-20.079,20.078c-11.072,0-20.078-9.005-20.078-20.078h-20.078
		c0,11.073-9.006,20.078-20.078,20.078c-11.074,0-20.079-9.005-20.079-20.078h-20.079c0,11.073-9.004,20.078-20.078,20.078
		c-11.072,0-20.078-9.005-20.078-20.078h-20.078c0,11.073-9.005,20.078-20.079,20.078s-20.079-9.005-20.079-20.078h-20.078
		c0,11.073-9.005,20.078-20.079,20.078s-20.079-9.005-20.079-20.078h-20.078c0,11.073-9.005,20.078-20.079,20.078
		s-20.078-9.005-20.078-20.078H60.235c0,11.073-9.005,20.078-20.079,20.078s-20.078-9.005-20.078-20.078
		c0-5.552-4.498-10.039-10.04-10.039C4.498,345.139,0,349.626,0,355.178c0,22.146,18.01,40.156,40.157,40.156
		c11.977,0,22.759-5.271,30.118-13.623c7.359,8.353,18.141,13.623,30.118,13.623c11.977,0,22.759-5.271,30.118-13.623
		c7.359,8.353,18.141,13.623,30.118,13.623c11.977,0,22.759-5.271,30.118-13.623c7.359,8.353,18.141,13.623,30.118,13.623
		c11.977,0,22.759-5.271,30.118-13.623c7.359,8.353,18.141,13.623,30.117,13.623s22.76-5.271,30.118-13.623
		c7.358,8.353,18.141,13.623,30.118,13.623c11.977,0,22.758-5.271,30.117-13.623c7.358,8.353,18.141,13.623,30.117,13.623
		c11.978,0,22.759-5.271,30.118-13.623c7.358,8.353,18.141,13.623,30.117,13.623c22.146,0,40.157-18.01,40.157-40.156
		C501.961,349.626,497.463,345.139,491.922,345.139z"/>
	<path fill="#6B625D" d="M471.843,411.607H50.196c-5.542,0-10.04,4.488-10.04,10.04v80.313c0,5.552,4.498,10.039,10.04,10.039
		h421.646c5.542,0,10.04-4.487,10.04-10.039v-80.313C481.883,416.096,477.385,411.607,471.843,411.607z M461.804,491.922H60.235
		v-60.235h401.568V491.922z"/>
	<path fill="#6B625D" d="M481.883,269.342v-48.479c0-0.221-0.111-0.402-0.121-0.623c-0.061-0.914-0.23-1.787-0.532-2.65
		c-0.11-0.321-0.19-0.643-0.341-0.954c-0.482-1.034-1.084-2.008-1.918-2.841c-0.01-0.01-0.02-0.03-0.03-0.04L268.117,2.941
		c-3.926-3.925-10.27-3.925-14.195,0L43.108,213.755c-0.01,0.01-0.02,0.03-0.03,0.04c-0.833,0.833-1.436,1.817-1.917,2.841
		c-0.141,0.311-0.221,0.632-0.341,0.954c-0.301,0.863-0.482,1.737-0.532,2.65c-0.021,0.221-0.131,0.402-0.131,0.623v32.346
		C15.551,260.297,0,276.51,0,296.156c0,25.751,34.525,45.177,80.314,45.177c21.865,0,41.11-4.467,55.306-11.906
		c14.667,7.609,34.334,11.906,55.125,11.906c24.566,0,45.819-5.632,60.315-14.787c14.908,9.336,36.693,14.787,60.155,14.787
		c23.632,0,44.212-5.2,58.649-13.753c14.787,8.684,37.175,13.753,61.821,13.753c39.916,0,80.313-13.794,80.313-40.157
		C512,288.016,501.087,276.671,481.883,269.342z M378.94,271.059h-1.798H258.47H230.5h-82.462h-28.029H75.294
		c-11.686,0-14.205-2.027-14.246-2.027c-0.331-0.643-0.452-3.032-0.532-4.598c-0.061-1.226-0.161-2.45-0.281-3.675v-29.857h401.568
		v32.096v8.061H378.94z M261.02,24.235l186.589,186.589H74.431L261.02,24.235z M20.079,296.156c0-7.609,6.354-16.443,20.078-21.854
		v6.796c0,5.553,4.498,10.039,10.04,10.039h25.098h63.317c0.241,0.372,0.663,0.773,0.854,1.145c0.01,0.011,0.01,0.021,0.02,0.041
		c0.703,1.335,1.064,2.63,1.064,3.834c0,1.176-0.381,2.41-0.943,3.665c-0.241,0.522-0.612,1.054-0.954,1.576
		c-0.432,0.692-0.923,1.386-1.516,2.078c-0.603,0.702-1.275,1.396-2.028,2.088c-0.502,0.462-1.084,0.924-1.657,1.376
		c-1.034,0.822-2.058,1.646-3.293,2.429l-0.07,0.051c-10.18,6.505-27.297,11.836-49.774,11.836
		C42.998,321.255,20.079,306.638,20.079,296.156z M153.479,315.332c2.289-2.882,4.076-5.934,5.281-9.146
		c0.02-0.051,0.04-0.091,0.06-0.131c0.542-1.476,0.954-2.972,1.255-4.508c0.03-0.141,0.081-0.271,0.11-0.411
		c0.271-1.637,0.442-3.293,0.442-4.98c0-1.695-0.161-3.362-0.462-5.02h88.938c0.201,0.312,0.552,0.653,0.713,0.965
		c0.06,0.12,0.11,0.24,0.17,0.361c0.623,1.274,0.994,2.51,0.994,3.693c0,1.165-0.381,2.4-0.944,3.645
		c-0.181,0.393-0.401,0.773-0.632,1.154c-0.502,0.874-1.165,1.758-1.917,2.631c-0.632,0.713-1.265,1.365-1.938,1.968
		c-8.785,8.142-27.989,15.701-54.804,15.701C177.232,321.255,164.141,319.116,153.479,315.332z M266.22,312.1
		c0.091-0.141,0.151-0.281,0.231-0.422c0.592-0.974,1.145-1.948,1.626-2.952c0.231-0.472,0.422-0.953,0.622-1.425
		c0.352-0.834,0.703-1.677,0.975-2.53c0.24-0.743,0.401-1.496,0.572-2.249c0.15-0.643,0.331-1.285,0.441-1.947
		c0.23-1.466,0.371-2.932,0.371-4.418c0-1.686-0.16-3.353-0.472-5.02h98.987c0.32,0.513,0.762,1.045,0.993,1.537
		c0.04,0.1,0.101,0.2,0.141,0.291c0.472,1.113,0.743,2.178,0.743,3.191c0,1.226-0.382,2.51-0.984,3.815
		c-0.2,0.411-0.481,0.772-0.723,1.165c-0.512,0.854-1.124,1.717-1.887,2.58c-0.432,0.481-0.854,0.963-1.306,1.385
		c-1.145,1.114-2.429,2.219-3.956,3.293l-0.512,0.392c-10.009,6.807-27.638,12.469-50.868,12.469
		C293.998,321.255,277.755,317.861,266.22,312.1z M431.687,321.255c-17.458,0-34.083-3.002-45.719-7.981
		c0.211-0.301,0.321-0.592,0.512-0.883c0.703-1.095,1.366-2.199,1.928-3.333c0.302-0.603,0.522-1.185,0.772-1.777
		c0.361-0.863,0.713-1.727,0.984-2.601c0.251-0.793,0.422-1.545,0.592-2.309c0.15-0.652,0.312-1.305,0.422-1.978
		c0.221-1.506,0.352-2.941,0.352-4.237c0-1.686-0.16-3.362-0.462-5.02h80.775h9.789c7.328,3.896,10.29,7.852,10.29,10.039
		C491.922,308.254,469.053,321.255,431.687,321.255z"/>
	<circle fill="#6B625D" cx="361.412" cy="180.706" r="10.039"/>
	<circle fill="#6B625D" cx="250.98" cy="90.353" r="10.039"/>
	<circle fill="#6B625D" cx="160.627" cy="180.706" r="10.039"/>
	<circle fill="#6B625D" cx="291.137" cy="150.588" r="10.039"/>
	<circle fill="#6B625D" cx="230.902" cy="160.627" r="10.039"/>
	<circle fill="#6B625D" cx="331.294" cy="451.765" r="10.039"/>
	<circle fill="#6B625D" cx="411.607" cy="471.843" r="10.04"/>
	<circle fill="#6B625D" cx="90.353" cy="471.843" r="10.04"/>
	<circle fill="#6B625D" cx="261.02" cy="471.843" r="10.04"/>
	<circle fill="#6B625D" cx="170.667" cy="451.765" r="10.039"/>
</g>
</svg>
