<?xml version="1.0" encoding="utf-8"?>
<!-- Generator: Adobe Illustrator 16.0.0, SVG Export Plug-In . SVG Version: 6.00 Build 0)  -->
<!DOCTYPE svg PUBLIC "-//W3C//DTD SVG 1.1//EN" "http://www.w3.org/Graphics/SVG/1.1/DTD/svg11.dtd">
<svg version="1.1" id="Layer_1" xmlns="http://www.w3.org/2000/svg" xmlns:xlink="http://www.w3.org/1999/xlink" x="0px" y="0px"
	 width="512px" height="512px" viewBox="0 0 512 512" enable-background="new 0 0 512 512" xml:space="preserve">
<g transform="translate(1 1)">
	<g>
		<g>
			<path fill="#6B625D" d="M459.8,37.399H50.2C22.04,37.399-1,60.44-1,88.6v273.066c0,28.159,23.04,51.2,51.2,51.2h298.667
				c0,8.533,1.707,16.214,5.12,23.04c10.239,26.453,41.813,39.253,70.827,28.159c17.066-5.973,43.521-5.12,54.613,5.973
				c1.707,1.707,3.413,2.561,5.973,2.561s4.267-0.854,5.973-2.561c3.413-3.412,3.413-8.532,0-11.946
				c-16.214-16.214-50.346-17.92-72.533-9.387c-20.479,7.68-41.812-0.854-49.493-18.774c-2.56-5.119-3.413-11.093-3.413-17.066
				h93.867c28.159,0,51.2-23.04,51.2-51.2V88.6C511,60.44,487.959,37.399,459.8,37.399z M493.934,361.666
				c0,18.773-15.36,34.134-34.134,34.134h-93.866v-17.067H447c16.214,0,29.866-13.653,29.866-29.866V101.399
				c0-16.214-13.653-29.866-29.866-29.866H63c-16.214,0-29.867,13.654-29.867,29.866v247.467c0,16.214,13.654,29.866,29.867,29.866
				h285.866V395.8H50.2c-18.773,0-34.133-15.36-34.133-34.134V88.6c0-18.773,15.36-34.133,34.133-34.133h409.6
				c18.773,0,34.134,15.36,34.134,34.133V361.666z M357.4,242.2c-5.12,0-8.533,3.413-8.533,8.533v42.666h-42.666
				c-9.387,0-17.067-7.68-17.067-17.066v-67.413c0-9.387,3.413-17.919,10.24-24.747l21.333-21.333
				c4.268-3.413,9.388-5.973,15.36-5.973l45.227,0.853c5.973,0,8.532,1.707,12.8,5.973l21.334,21.333
				c6.826,5.973,10.239,14.507,10.239,23.894v67.413c0,9.387-7.68,17.066-17.066,17.066h-42.667v-42.666
				C365.934,245.613,362.52,242.2,357.4,242.2z M408.6,310.467c18.773,0,34.134-15.359,34.986-34.134V208.92
				c0-13.654-5.973-26.454-15.359-35.839l-21.334-21.333c-7.68-6.827-17.066-11.093-27.307-11.093h-43.521
				c-10.239,0-19.627,3.413-27.307,11.093l-21.334,21.333c-10.239,9.387-15.359,22.187-15.359,35.839v67.413
				c0,18.774,15.359,34.134,34.134,34.134h42.666v51.2H63c-6.827,0-12.8-5.973-12.8-12.8V101.399c0-6.827,5.973-12.8,12.8-12.8h384
				c6.827,0,12.8,5.973,12.8,12.8v247.467c0,6.827-5.973,12.8-12.8,12.8h-81.066v-51.2L408.6,310.467L408.6,310.467z"/>
			<path fill="#6B625D" d="M374.466,225.133c0-5.12-3.413-8.533-8.532-8.533h-17.067c-5.12,0-8.532,3.413-8.532,8.533
				c0,5.12,3.412,8.533,8.532,8.533h17.067C371.053,233.667,374.466,230.253,374.466,225.133z"/>
			<path fill="#6B625D" d="M229.4,139.8H75.8c-5.12,0-8.533,3.413-8.533,8.533v153.6c0,5.12,3.413,8.533,8.533,8.533h153.6
				c5.12,0,8.533-3.413,8.533-8.533v-153.6C237.933,143.213,234.52,139.8,229.4,139.8z M220.866,293.4H84.333V156.867h136.533V293.4
				z"/>
			<path fill="#6B625D" d="M118.466,216.6c5.12,0,8.533-3.413,8.533-8.533v-25.6c0-5.12-3.413-8.533-8.533-8.533
				c-5.12,0-8.533,3.413-8.533,8.533v25.6C109.934,213.186,113.347,216.6,118.466,216.6z"/>
			<path fill="#6B625D" d="M186.733,216.6c5.12,0,8.533-3.413,8.533-8.533v-25.6c0-5.12-3.413-8.533-8.533-8.533
				s-8.533,3.413-8.533,8.533v25.6C178.2,213.186,181.613,216.6,186.733,216.6z"/>
			<path fill="#6B625D" d="M152.6,276.333c5.12,0,8.533-3.413,8.533-8.532v-17.067c0-5.12-3.413-8.533-8.533-8.533
				c-5.12,0-8.533,3.413-8.533,8.533v17.067C144.067,272.92,147.48,276.333,152.6,276.333z"/>
		</g>
	</g>
</g>
</svg>
