<?xml version="1.0" encoding="utf-8"?>
<!-- Generator: Adobe Illustrator 16.0.0, SVG Export Plug-In . SVG Version: 6.00 Build 0)  -->
<!DOCTYPE svg PUBLIC "-//W3C//DTD SVG 1.1//EN" "http://www.w3.org/Graphics/SVG/1.1/DTD/svg11.dtd">
<svg version="1.1" id="Capa_1" xmlns="http://www.w3.org/2000/svg" xmlns:xlink="http://www.w3.org/1999/xlink" x="0px" y="0px"
	 width="512px" height="512px" viewBox="0 0 512 512" enable-background="new 0 0 512 512" xml:space="preserve">
<g>
	<path fill="#6B625D" d="M512,222.676c0-50.439-41.035-91.474-91.475-91.474c-18.368,0-35.986,5.516-51.197,15.843
		c-30.517-30.314-68.24-51.519-108.965-58.791c5.681-7.062,9.23-15.907,9.23-25.659c0-22.694-18.469-41.163-41.164-41.163
		s-41.164,18.469-41.164,41.163c0,9.879,3.641,18.826,9.458,25.933c-40.523,7.528-78.842,28.952-110.711,62.349l-25.933-23.134
		c-11.91-10.62-29.528-12.971-42.837-5.699c-9.66,5.251-15.871,14.096-17.042,24.259c-1.144,9.916,2.625,19.548,10.337,26.427
		c20.554,18.35,27.79,45.371,18.871,70.527c-2.077,5.863-3.833,11.763-5.47,17.673l-0.046,0.009l-0.174,0.705
		c-2.634,9.687-4.546,19.42-5.964,29.162c-0.448,3.009-0.86,6-1.189,8.991c-0.265,2.488-0.53,4.976-0.713,7.474
		c-0.458,5.827-0.769,11.626-0.769,17.344c0,44.868,13.337,87.988,38.575,124.697c2.187,3.184,4.602,6.211,7.208,9.084
		c18.258,20.078,46.24,32.189,75.649,32.189h185.446c29.399,0,57.382-12.103,75.641-32.189c2.606-2.873,5.021-5.9,7.208-9.084
		c25.237-36.699,38.584-79.82,38.584-124.697c0-4.464-0.155-8.91-0.394-13.328C483.451,301.152,512,265.129,512,222.676z
		 M422.446,290.906c-10.354-1.07-19.969-5.506-27.332-12.87c-24.03-24.03-62.597-24.927-87.706-2.681l-3.119,2.681
		c-0.832,0.833-1.802,1.437-2.68,2.187V149.497h-64.032v-45.472C326.729,108.973,407.106,192.407,422.446,290.906z M173.545,282.811
		c17.188-8.79,38.758-6.211,53.128,8.16c12.102,12.102,28.183,18.771,45.28,18.771c3.852,0,7.647-0.348,11.361-1.016v87.752h-109.77
		V282.811z M239.608,278.036c-17.829-17.828-43.661-22.896-66.063-15.249v-94.996h109.77V289.8
		C268.166,293.669,251.445,289.863,239.608,278.036z M228.43,39.728c12.614,0,22.869,10.254,22.869,22.868
		s-10.254,22.869-22.869,22.869s-22.869-10.254-22.869-22.869S215.815,39.728,228.43,39.728z M22.722,159.074
		c-3.22-2.863-4.793-6.75-4.354-10.675c0.494-4.235,3.202-7.885,7.62-10.3c2.388-1.299,5.168-1.921,8.059-1.921
		c4.894,0,10.053,1.811,13.858,5.205l31.906,28.476c4.116,3.678,10.538,3.339,14.297-0.805
		c35.145-39.279,79.253-62.075,125.173-64.965v45.408H155.25v123.169c-1.125,0.869-2.269,1.729-3.348,2.689l-3.119,2.681
		c-8.645,8.645-20.134,13.41-32.336,13.41c-12.212,0-23.701-4.766-32.345-13.41c-11.014-11.014-25.329-17.39-40.624-18.396
		c1.043-3.43,1.967-6.87,3.174-10.282C58.104,217.06,48.93,182.473,22.722,159.074z M389.735,438.939
		c-1.766,2.57-3.714,5.021-5.836,7.336c-14.81,16.219-37.715,25.997-61.938,25.997H136.507c-20.756,0-40.551-7.181-55.104-19.447
		c-2.213-1.866-4.263-3.879-6.22-5.964c-0.192-0.201-0.42-0.375-0.604-0.576c-2.113-2.314-4.071-4.767-5.836-7.337
		c-23.125-33.644-35.355-73.179-35.355-114.333c0-5.26,0.311-10.538,0.704-15.816c0.146-1.894,0.284-3.777,0.485-5.681
		c0.403-4.024,0.97-8.04,1.592-12.056c0.576-3.596,1.262-7.209,2.021-10.831c0.174-0.823,0.366-1.646,0.549-2.47
		c0.119-0.01,0.247-0.01,0.375-0.01c12.065,0,23.491,4.656,32.062,13.229c12.102,12.102,28.183,18.77,45.28,18.77
		c14.206,0,27.698-4.646,38.803-13.154v118.186h146.359V302.414c4.546-2.388,8.854-5.287,12.771-8.764l3.109-2.68
		c17.828-17.828,46.854-17.828,64.682,0c11.307,11.307,26.372,17.801,42.325,18.469c0.009,0.146,0.027,0.302,0.036,0.448
		c0.366,5.031,0.567,9.961,0.567,14.718C425.1,365.77,412.869,405.295,389.735,438.939z M441.4,292.745
		c-6.056-48.975-25.86-96.99-55.479-134.485c10.62-5.763,22.421-8.763,34.604-8.763c40.35,0,73.18,32.83,73.18,73.179
		C493.705,255.616,472.227,283.707,441.4,292.745z"/>
	<circle fill="#6B625D" cx="228.43" cy="378.183" r="9.147"/>
	<circle fill="#6B625D" cx="265.02" cy="323.298" r="9.147"/>
	<circle fill="#6B625D" cx="191.84" cy="323.298" r="9.147"/>
	<circle fill="#6B625D" cx="228.43" cy="323.298" r="9.147"/>
	<circle fill="#6B625D" cx="246.725" cy="350.74" r="9.147"/>
	<circle fill="#6B625D" cx="210.135" cy="350.74" r="9.147"/>
</g>
</svg>
