<?xml version="1.0" encoding="iso-8859-1"?>
<!-- Generator: Adobe Illustrator 19.0.0, SVG Export Plug-In . SVG Version: 6.00 Build 0)  -->
<svg xmlns="http://www.w3.org/2000/svg" xmlns:xlink="http://www.w3.org/1999/xlink" version="1.1" id="Layer_1" x="0px" y="0px" viewBox="0 0 512 512" style="enable-background:new 0 0 512 512;" xml:space="preserve" width="512px" height="512px">
<g>
	<g>
		<path d="M139.521,265.461v8.083c0,45.614,26.264,86.348,67.368,105.256v132.122H303.9V378.801    c41.104-18.908,67.368-59.642,67.368-105.256v-8.084H139.521z M292.781,365.996l-5.051,2.045v126.713h-64.674V368.042    l-5.051-2.045c-35.338-14.306-59.004-46.881-61.996-84.368h198.768C351.784,319.116,328.118,351.69,292.781,365.996z" fill="#6b625d"/>
	</g>
</g>
<g>
	<g>
		<path d="M330.046,35.352C311.539,12.885,284.012,0,254.525,0c-29.85,0-57.588,13.144-76.1,36.063    c-17.825,22.069-24.694,50.491-18.871,78.03l15.593,118.732h160.561l14.139-120.469C355.081,85.041,347.872,56.993,330.046,35.352    z M333.918,109.568l-0.058,0.301l-12.534,106.788H189.331l-13.787-104.988l-0.112-0.649c-4.915-22.842,0.761-46.459,15.571-64.797    c15.428-19.1,38.581-30.055,63.524-30.055c24.639,0,47.615,10.739,63.04,29.463C332.378,63.612,338.337,86.916,333.918,109.568z" fill="#6b625d"/>
	</g>
</g>
<g>
	<g>
		<rect x="137.907" y="240.909" width="232.825" height="16.168" fill="#6b625d"/>
	</g>
</g>
<g>
	<g>
		<path d="M306.951,60.659c-12.852-15.602-31.961-24.549-52.426-24.549v16.168c15.617,0,30.177,6.802,39.946,18.661    c9.36,11.363,13.128,26.087,10.336,40.396l15.87,3.097C324.397,95.364,319.393,75.764,306.951,60.659z" fill="#6b625d"/>
	</g>
</g>
<g>
	<g>
		<path d="M107.992,142.282H8.287v16.168h99.705c11.144,0,20.211,9.066,20.211,20.211s-9.066,20.211-20.211,20.211h-5.389v-24.253    H0.203v70.063h10.779v115.866l18.867-11.316l10.785,6.468l10.776-6.466l10.78,6.467l10.776-6.467l18.858,11.321V244.682h10.779    V215.04h5.389c20.06,0,36.379-16.32,36.379-36.379S128.052,142.282,107.992,142.282z M75.655,331.992l-2.688-1.614l-10.778,6.467    l-10.78-6.467l-10.778,6.468l-10.782-6.466l-2.699,1.619v-87.317h48.505V331.992z M86.434,228.514H16.371v-37.726h70.063V228.514z    " fill="#6b625d"/>
	</g>
</g>
<g>
	<g>
		<path d="M466.528,382.653v-22.806l11.95-4.511c26.367-10.088,39.613-39.747,29.525-66.115l-2.889-7.551l-24.665,9.436    c-5.09,1.947-9.766,4.688-13.921,8.053v-13.148l11.95-4.511c26.367-10.088,39.613-39.747,29.525-66.115l-2.889-7.551    l-24.665,9.436c-8.746,3.346-16.32,8.975-22.005,16.237c-5.684-7.263-13.259-12.893-22.005-16.237l-24.665-9.436l-2.889,7.551    c-10.087,26.367,3.157,56.027,29.55,66.125l11.925,4.506v13.144c-4.154-3.366-8.831-6.106-13.921-8.053l-24.665-9.436    l-2.889,7.551c-10.087,26.367,3.157,56.027,29.55,66.125l11.925,4.506v22.802h-45.272V512h106.712V382.653H466.528z     M444.188,266.4c-15.443-5.909-24.308-21.63-22.21-37.35l8.686,3.322c8.094,3.097,14.722,9.051,18.663,16.767    c1.761,3.449,5.256,5.592,9.119,5.592s7.358-2.142,9.118-5.591c3.941-7.716,10.57-13.671,18.663-16.768l8.686-3.322    c2.098,15.72-6.764,31.439-22.186,37.34c-2.81,1.064-6.452,2.444-9.642,3.648l-4.824-12.404l-4.577,12.358    C450.527,268.8,446.95,267.446,444.188,266.4z M444.188,340.235c-15.443-5.909-24.308-21.63-22.21-37.35l8.686,3.322    c8.094,3.097,14.722,9.051,18.663,16.767c1.761,3.449,5.256,5.592,9.119,5.592s7.358-2.142,9.118-5.591    c3.941-7.716,10.57-13.671,18.663-16.768l8.686-3.322c2.098,15.72-6.764,31.439-22.186,37.34c-2.81,1.064-6.452,2.444-9.642,3.648    l-4.824-12.404l-4.577,12.358C450.527,342.636,446.95,341.282,444.188,340.235z M495.631,495.832h-74.375v-97.01h74.375V495.832z" fill="#6b625d"/>
	</g>
</g>
<g>
</g>
<g>
</g>
<g>
</g>
<g>
</g>
<g>
</g>
<g>
</g>
<g>
</g>
<g>
</g>
<g>
</g>
<g>
</g>
<g>
</g>
<g>
</g>
<g>
</g>
<g>
</g>
<g>
</g>
</svg>
