<?xml version="1.0" encoding="utf-8"?>
<!-- Generator: Adobe Illustrator 16.0.0, SVG Export Plug-In . SVG Version: 6.00 Build 0)  -->
<!DOCTYPE svg PUBLIC "-//W3C//DTD SVG 1.1//EN" "http://www.w3.org/Graphics/SVG/1.1/DTD/svg11.dtd">
<svg version="1.1" id="Capa_1" xmlns="http://www.w3.org/2000/svg" xmlns:xlink="http://www.w3.org/1999/xlink" x="0px" y="0px"
	 width="512px" height="512px" viewBox="0 0 512 512" enable-background="new 0 0 512 512" xml:space="preserve">
<g>
	<path fill="#6B625D" d="M210.082,140.392c1.046,0.401,2.118,0.601,3.173,0.601c3.478,0,6.772-2.109,8.123-5.552
		c1.752-4.48-0.471-9.535-4.941-11.287c-12.986-5.073-19.427-19.776-14.346-32.762c5.073-12.986,19.767-19.427,32.762-14.346
		c4.506,1.726,9.543-0.462,11.295-4.951c1.752-4.488-0.471-9.535-4.942-11.287c-21.98-8.567-46.768,2.31-55.353,24.247
		C177.267,106.993,188.145,131.824,210.082,140.392z"/>
	<path fill="#6B625D" d="M464.151,167.872c-4.41,1.935-6.415,7.077-4.488,11.479c2.719,6.188,2.85,13.064,0.392,19.349
		c-2.458,6.292-7.217,11.252-13.404,13.962c-6.188,2.71-13.057,2.85-19.357,0.392c-6.293-2.458-11.252-7.225-13.963-13.414
		c-1.926-4.401-7.042-6.406-11.479-4.488c-4.41,1.935-6.414,7.068-4.488,11.479c4.576,10.45,12.951,18.495,23.576,22.652
		c5.046,1.97,10.311,2.955,15.565,2.955c5.822,0,11.636-1.211,17.135-3.617c10.45-4.576,18.495-12.951,22.652-23.584
		c4.157-10.633,3.913-22.242-0.662-32.692C473.703,167.95,468.588,165.955,464.151,167.872z"/>
	<path fill="#6B625D" d="M342.411,143.668c-4.184,2.371-5.665,7.687-3.294,11.879c3.32,5.875,4.156,12.708,2.353,19.209
		c-1.812,6.51-6.048,11.923-11.932,15.252c-5.883,3.329-12.716,4.148-19.209,2.353c-6.511-1.813-11.923-6.049-15.253-11.932
		c-2.361-4.192-7.695-5.665-11.87-3.294c-4.184,2.371-5.665,7.687-3.295,11.879c7.845,13.884,22.347,21.693,37.26,21.693
		c7.112,0,14.328-1.778,20.943-5.517c9.937-5.613,17.091-14.756,20.151-25.755c3.059-10.999,1.638-22.521-3.975-32.457
		C351.92,142.779,346.595,141.298,342.411,143.668z"/>
	<path fill="#6B625D" d="M268.031,159.4c5.988,2.894,12.307,4.262,18.547,4.262c15.872,0,31.15-8.881,38.523-24.107
		c2.092-4.332,0.279-9.543-4.053-11.644c-4.357-2.101-9.552-0.27-11.644,4.053c-6.075,12.559-21.231,17.806-33.782,11.749
		c-12.551-6.075-17.823-21.24-11.748-33.782c2.092-4.332,0.278-9.543-4.053-11.644c-4.35-2.101-9.544-0.27-11.645,4.053
		C237.928,123.535,246.827,149.133,268.031,159.4z"/>
	<path fill="#6B625D" d="M203.223,208.992c5.482,2.397,11.287,3.6,17.1,3.6c5.264,0,10.546-0.985,15.592-2.963
		c10.633-4.166,19-12.21,23.558-22.669c1.936-4.41-0.086-9.552-4.497-11.479c-4.445-1.926-9.553,0.104-11.47,4.498
		c-2.711,6.188-7.661,10.956-13.954,13.422c-6.284,2.467-13.152,2.345-19.357-0.375c-12.777-5.587-18.625-20.525-13.047-33.303
		c1.935-4.41-0.087-9.552-4.497-11.479c-4.454-1.917-9.552,0.104-11.47,4.498C171.759,174.312,181.651,199.553,203.223,208.992z"/>
	<path fill="#6B625D" d="M313.127,117.286c1.385,0.131,2.771,0.192,4.157,0.192c9.892,0,19.392-3.399,27.114-9.77
		c18.163-14.991,20.752-41.975,5.761-60.138c-3.067-3.704-8.541-4.253-12.271-1.176c-3.713,3.068-4.235,8.559-1.177,12.271
		c8.881,10.755,7.348,26.731-3.416,35.604c-5.203,4.296-11.697,6.345-18.512,5.665c-6.721-0.645-12.795-3.87-17.092-9.082
		c-3.068-3.704-8.541-4.253-12.271-1.176c-3.713,3.068-4.236,8.559-1.177,12.271C291.503,110.75,301.762,116.197,313.127,117.286z"
		/>
	<path fill="#6B625D" d="M134.491,195.988c1.812-4.462-0.34-9.543-4.803-11.356c-4.445-1.795-9.543,0.332-11.356,4.803
		c-5.238,12.917-19.994,19.174-32.945,13.927c-12.917-5.247-19.166-20.02-13.928-32.945c1.804-4.462-0.34-9.544-4.802-11.356
		c-4.471-1.804-9.552,0.34-11.356,4.802c-8.855,21.833,1.7,46.794,23.523,55.649c5.247,2.126,10.668,3.129,16.011,3.129
		C111.726,222.641,127.754,212.574,134.491,195.988z"/>
	<path fill="#6B625D" d="M499.205,171.079c5.16-16.071,0.924-33.886-11.435-46.036c-8.829-8.663-20.699-13.439-32.979-13.282
		c-2.049-5.438-5.265-10.372-9.5-14.529c-11.183-10.981-27.185-14.137-41.321-9.84c0.026-0.767,0.191-1.508,0.191-2.275
		c0-33.982-28.081-61.628-62.587-61.628c-6.545,0-12.951,0.994-19.139,2.972c-9.85-10.241-23.654-16.194-38.088-16.194
		c-16.062,0-31.062,7.251-40.929,19.366c-8.175-4.036-17.152-6.136-26.391-6.136c-32.648,0-59.214,26.164-59.214,58.325
		c0,0.113,0,0.227,0,0.34c-9.143,4.306-16.751,10.86-22.478,18.73c-16.42-6.109-35.167-2.641-48.145,9.579
		c-16.281-5.107-34.392-1.011-46.733,11.112c-8.82,8.664-13.623,20.377-13.588,32.439c-5.508,2.005-10.511,5.151-14.729,9.291
		C4.314,170.992,0,181.224,0,192.127s4.314,21.135,12.141,28.832c4.515,4.427,9.875,7.705,15.792,9.666
		c0.07,12.585,5.142,24.796,14.311,33.799c9.108,8.951,21.188,13.85,33.729,13.997c0.671,8.394,4.332,16.446,10.52,22.521
		c7.051,6.92,16.307,10.389,25.58,10.389c3.504,0,6.964-0.653,10.346-1.647c35.838,1.003,84.62,79.827,91.035,171.82
		c0.793,11.348,10.354,20.238,21.754,20.238h43.578c11.121,0,20.473-8.35,21.729-19.428l0.662-6.118
		c11.939-110.619,36.814-167.41,73.926-169.109c7.286,3.931,15.296,6.109,23.384,6.109c12.464,0,24.927-4.663,34.418-13.979
		c3.277-3.217,6.031-6.824,8.245-10.781c10.755-0.062,21.231-4.262,28.937-11.828c8.515-8.357,12.794-19.836,12.045-31.402
		c6.074-2.249,11.601-5.752,16.271-10.336c8.777-8.62,13.605-20.09,13.605-32.309C512,190.733,507.477,179.603,499.205,171.079z
		 M169.737,96.107c3.922-1.325,6.363-5.229,5.857-9.334c-0.2-1.63-0.34-3.277-0.34-4.968c0-22.547,18.739-40.894,41.783-40.894
		c8.637,0,16.943,2.589,24.046,7.487c2.014,1.395,4.541,1.865,6.92,1.316c2.388-0.549,4.436-2.083,5.63-4.227
		c6.162-10.981,17.945-17.806,30.723-17.806c11.19,0,21.807,5.325,28.396,14.25c2.414,3.277,6.771,4.437,10.494,2.815
		c5.839-2.545,12.01-3.835,18.337-3.835c24.892,0,45.155,19.828,45.155,44.197c0,5.97-1.298,11.783-3.729,17.318
		c-0.009,0.026-0.026,0.035-0.035,0.061l-0.662,1.586c-0.018,0.026-0.026,0.061-0.035,0.087c0,0,0,0,0,0.009l-0.018,0.035
		c-0.157,0.331-0.157,0.68-0.271,1.02c-0.244,0.732-0.531,1.456-0.584,2.205c-0.008,0.183,0.062,0.349,0.062,0.532
		c0,0.907,0.052,1.822,0.331,2.676c0.088,0.279,0.297,0.497,0.41,0.767c0.313,0.723,0.619,1.456,1.115,2.083
		c0.688,0.854,1.543,1.586,2.562,2.144c4.75,2.624,7.582,7.286,7.582,12.481c0,5.221-3.006,10.04-7.826,12.603
		c-2.162,1.142-3.738,3.138-4.357,5.5c-0.61,2.362-0.209,4.872,1.106,6.92c2.841,4.41,4.349,9.482,4.349,14.66
		c0,11.112-6.763,21.109-17.238,25.467c-4.35,1.812-6.468,6.754-4.785,11.165c1.211,3.164,1.821,6.423,1.821,9.674
		c0,15.252-12.698,27.664-28.317,27.664c-1.604,0-3.189-0.174-4.775-0.454c-0.332-0.052-0.654-0.13-0.977-0.191
		c-1.552-0.323-3.104-0.741-4.619-1.333h-0.01c-5.812-2.266-10.824-6.362-14.066-11.81c-1.551-2.589-4.322-4.192-7.338-4.253
		c-3.242,0-5.849,1.456-7.47,3.992c-4.716,7.304-11.348,12.873-19,16.403c-1.124,0.523-2.258,1.02-3.408,1.447
		c-0.566,0.209-1.159,0.375-1.734,0.558c-1.089,0.349-2.179,0.706-3.294,0.976c-0.759,0.183-1.534,0.288-2.311,0.436
		c-0.976,0.183-1.943,0.401-2.928,0.514c-1.699,0.201-3.426,0.305-5.168,0.323c-1.299,0.009-2.606-0.087-3.905-0.192
		c-0.419-0.035-0.845-0.035-1.264-0.079c-1.421-0.157-2.841-0.41-4.253-0.697c-0.27-0.052-0.558-0.087-0.828-0.148
		c-1.534-0.349-3.05-0.784-4.549-1.29c-0.131-0.043-0.262-0.078-0.392-0.122c-1.621-0.566-3.225-1.211-4.794-1.97l0,0
		c-6.746-3.216-12.698-8.027-17.161-14.189c-1.377-1.9-3.46-3.172-5.788-3.512c-0.427-0.061-0.845-0.096-1.272-0.096
		c-1.9,0-3.765,0.619-5.29,1.795c-2.249,1.717-4.698,3.033-7.226,4.158c-0.061,0.026-0.122,0.017-0.183,0.043
		c-2.283,1.002-4.584,1.743-6.894,2.257c-0.078,0.018-0.157,0.043-0.235,0.061c-2.327,0.505-4.663,0.767-6.99,0.767
		c-19.331,0-35.045-15.375-35.045-34.279c0-7.234,2.318-14.18,6.702-20.098c1.421-1.909,1.996-4.314,1.595-6.659
		c-0.393-2.345-1.735-4.419-3.705-5.752c-11.312-7.661-18.059-20.238-18.059-33.642c0-1.987,0.183-3.94,0.471-5.866
		c0.07-0.497,0.183-0.985,0.27-1.473c0.279-1.464,0.627-2.911,1.063-4.332c0.157-0.497,0.296-0.994,0.471-1.49
		c0.54-1.534,1.168-3.024,1.882-4.48c0.14-0.288,0.244-0.584,0.401-0.872C150.946,106.984,159.261,99.646,169.737,96.107z
		 M294.117,256.249c4.445-2.772,8.586-6.031,12.237-9.875c3.669,3.521,7.983,6.258,12.595,8.393
		c0.252,0.314,0.496,0.619,0.836,0.959c1.438,1.411,2.99,2.692,4.637,3.835c-10.781,12.559-20.42,27.306-28.387,41.6
		C296.566,284.4,295.573,269.139,294.117,256.249z M237.553,347.963c-14.502-33.346-32.901-57.523-47.308-73.203
		c2.771-1.246,5.36-2.928,7.591-5.115c4.819-4.742,7.495-11.104,7.661-17.684c1.987-1.081,3.983-2.51,5.979-3.975
		c1.238-0.549,2.493-1.063,3.687-1.708c4.314,4.532,9.291,8.358,14.694,11.4C236.812,284.818,238.042,320.169,237.553,347.963z
		 M98.696,288.514c-4.707-4.628-6.511-11.182-4.82-17.535c0.776-2.938-0.026-6.076-2.126-8.271
		c-1.665-1.734-3.948-2.685-6.301-2.685c-0.619,0-1.255,0.069-1.874,0.2c-10.65,2.336-21.51-0.74-29.136-8.228
		c-7.095-6.973-10.337-16.952-8.655-26.696c0.41-2.354-0.174-4.759-1.595-6.676c-1.421-1.909-3.565-3.155-5.936-3.452
		c-5.343-0.653-10.154-2.955-13.91-6.65c-4.454-4.393-6.912-10.215-6.912-16.394s2.458-12.001,6.929-16.385
		c3.564-3.504,8.123-5.77,13.178-6.545c2.336-0.357,4.419-1.647,5.787-3.574c1.36-1.926,1.892-4.323,1.447-6.641
		c-1.7-9.099,1.255-18.434,7.905-24.97c8.707-8.559,22.024-10.729,33.137-5.404c3.617,1.734,8.027,0.75,10.572-2.414
		c0.715-0.898,1.464-1.778,2.318-2.615c7.565-7.443,18.468-9.988,28.448-7.121c-0.087,0.252-0.113,0.523-0.192,0.775
		c-0.662,2.057-1.142,4.175-1.569,6.31c-0.157,0.767-0.383,1.517-0.505,2.292c-0.453,2.911-0.723,5.875-0.723,8.881
		c0,16.403,7.024,31.908,19.104,42.881c-3.704,7.19-5.63,15.095-5.63,23.262c0,1.761,0.096,3.495,0.271,5.212
		c0.061,0.602,0.183,1.186,0.27,1.787c0.148,1.098,0.288,2.205,0.514,3.286c0.14,0.688,0.349,1.351,0.514,2.022
		c0.235,0.959,0.453,1.935,0.75,2.868c0.227,0.714,0.505,1.395,0.758,2.091c0.314,0.872,0.61,1.752,0.967,2.598
		c0.305,0.714,0.663,1.386,0.994,2.083c0.384,0.802,0.75,1.612,1.177,2.388c0.375,0.688,0.802,1.333,1.203,2.004
		c0.453,0.75,0.889,1.499,1.369,2.223c0.444,0.653,0.924,1.272,1.395,1.9c0.514,0.688,1.011,1.386,1.56,2.057
		c0.505,0.619,1.054,1.194,1.595,1.787c0.566,0.627,1.125,1.264,1.726,1.865c0.567,0.567,1.177,1.098,1.77,1.647
		c0.619,0.566,1.238,1.15,1.882,1.682c0.619,0.514,1.272,0.994,1.917,1.481c0.671,0.506,1.333,1.02,2.031,1.5
		c0.671,0.462,1.369,0.88,2.066,1.307c0.714,0.444,1.429,0.889,2.17,1.299c0.715,0.392,1.447,0.75,2.179,1.115
		c0.767,0.375,1.534,0.758,2.318,1.098c0.75,0.323,1.516,0.61,2.283,0.898c0.811,0.305,1.621,0.619,2.449,0.88
		c0.784,0.252,1.586,0.471,2.388,0.688c0.845,0.227,1.682,0.453,2.536,0.645c0.819,0.183,1.647,0.322,2.484,0.462
		c0.872,0.148,1.743,0.288,2.632,0.401c0.845,0.104,1.699,0.166,2.554,0.227c0.558,0.035,1.098,0.122,1.656,0.148
		c-0.244,1.752-1.063,3.382-2.371,4.68c-2.284,2.24-5.674,3.033-8.855,2.092c-2.318-0.68-4.802-0.375-6.868,0.837
		c-2.074,1.212-3.556,3.233-4.096,5.578c-0.383,1.683-1.002,3.276-1.831,4.759c-0.845,1.517-1.891,2.902-3.146,4.122
		c-5.369,5.282-13.396,6.877-20.491,4.062c-4.297-1.717-9.195,0.253-11.13,4.454c-0.933,2.03-2.213,3.853-3.782,5.395
		c-1.848,1.813-4.114,3.226-6.72,4.184c-0.035,0.009-0.053,0.044-0.087,0.052C111.9,295.172,104.073,293.787,98.696,288.514z
		 M283.834,474.331l-0.654,6.022c-0.262,2.258-2.152,3.957-4.41,3.957h-43.578c-2.292,0-4.201-1.77-4.358-4.018
		c-5.822-83.514-46.167-163.079-88.847-183.246c0.671,0.104,1.342,0.121,2.013,0.183c0.61,0.062,1.22,0.14,1.822,0.165
		c0.837,0.035,1.665,0.01,2.493-0.008c0.593-0.018,1.186,0,1.769-0.044c0.828-0.062,1.647-0.192,2.467-0.306
		c0.584-0.078,1.168-0.131,1.752-0.244c0.811-0.156,1.604-0.374,2.405-0.584c0.575-0.147,1.15-0.261,1.717-0.443
		c0.802-0.254,1.577-0.576,2.362-0.881c0.532-0.209,1.081-0.383,1.604-0.619c0.854-0.383,1.665-0.836,2.493-1.281
		c0.427-0.234,0.872-0.427,1.29-0.671c1.02-0.601,1.987-1.29,2.955-1.995c0.192-0.148,0.41-0.262,0.602-0.41
		c1.15-0.889,2.257-1.839,3.312-2.876c0.854-0.837,1.656-1.708,2.415-2.624c17.048,18.207,46.062,55.711,60.007,111.447
		c1.02,4.113,4.881,6.859,9.09,6.58c4.228-0.313,7.618-3.617,8.036-7.835c0.331-3.338,7.277-75.513-3.216-129.846
		c0.619,0.113,1.255,0.14,1.874,0.235c1.395,0.218,2.789,0.418,4.209,0.541c0.95,0.078,1.9,0.104,2.85,0.147
		c0.838,0.034,1.656,0.131,2.493,0.131c0.488,0,0.959-0.062,1.438-0.069c0.984-0.027,1.969-0.079,2.954-0.148
		c1.308-0.088,2.614-0.209,3.905-0.384c0.924-0.122,1.83-0.261,2.745-0.419c1.411-0.252,2.815-0.549,4.2-0.896
		c0.453-0.113,0.924-0.166,1.378-0.297c2.388,25.328,2.448,59.205-7.034,92.935c-1.271,4.506,1.256,9.213,5.709,10.65
		c4.454,1.456,9.248-0.897,10.859-5.281c0.209-0.566,19.219-51.806,46.777-86.459c0.087,0.14,0.227,0.253,0.322,0.401
		c0.968,1.473,2.066,2.867,3.348,4.139c0.034,0.035,0.052,0.079,0.086,0.113c1.16,1.134,2.424,2.136,3.748,3.025
		c0.044,0.025,0.078,0.069,0.122,0.104c0.671,0.445,1.403,0.741,2.109,1.125c0.749,0.4,1.464,0.871,2.249,1.193
		c0.4,0.166,0.828,0.236,1.229,0.385c1.142,0.409,2.275,0.818,3.469,1.071c1.612,0.34,3.251,0.532,4.906,0.566
		c0.941,1.787,1.996,3.504,3.156,5.143C301.16,313.711,288.322,432.714,283.834,474.331z M486.185,222.432
		c-4.201,4.131-9.553,6.842-15.444,7.853c-2.449,0.418-4.602,1.865-5.927,3.983c-1.325,2.118-1.665,4.689-0.959,7.077
		c2.38,8.114,0.088,16.856-5.987,22.826c-5.387,5.272-13.16,7.687-20.699,6.536c-3.992-0.636-7.967,1.621-9.466,5.431
		c-1.577,4.035-3.931,7.608-7.024,10.633c-10.625,10.441-27.036,11.801-39.194,4.104c-0.009-0.008-0.018-0.017-0.026-0.025
		c-1.996-1.272-3.695-2.605-5.203-4.088c-3.303-3.242-5.761-7.111-7.33-11.504c-0.365-1.012-0.924-1.875-1.577-2.658
		c-0.183-0.219-0.409-0.385-0.61-0.584c-0.514-0.498-1.046-0.934-1.656-1.291c-0.296-0.174-0.592-0.313-0.906-0.443
		c-0.602-0.262-1.211-0.445-1.865-0.567c-0.348-0.069-0.68-0.14-1.045-0.165c-0.184-0.01-0.367-0.088-0.55-0.088
		c-0.759,0-1.524,0.096-2.283,0.305c-0.009,0-0.026,0-0.044,0c-0.365,0.105-0.74,0.105-1.106,0.158
		c-2.345,0.348-4.654-0.192-6.52-1.518c-0.357-0.262-0.741-0.479-1.063-0.793c-0.609-0.592-1.09-1.281-1.481-2.014
		c-0.096-0.183-0.147-0.392-0.235-0.584c-0.244-0.566-0.453-1.158-0.566-1.777c-0.235-1.281-0.209-2.623,0.2-3.966
		c0.113-0.366,0.2-0.741,0.262-1.115c2.702-0.575,5.308-1.412,7.81-2.44c0.715-0.296,1.359-0.706,2.057-1.028
		c1.821-0.854,3.607-1.761,5.29-2.833c0.862-0.549,1.639-1.185,2.458-1.787c1.403-1.037,2.763-2.1,4.035-3.277
		c0.793-0.741,1.525-1.517,2.258-2.31c1.15-1.229,2.223-2.501,3.225-3.853c0.653-0.872,1.272-1.752,1.856-2.667
		c0.915-1.438,1.717-2.937,2.466-4.479c0.463-0.95,0.951-1.874,1.343-2.859c0.697-1.734,1.212-3.53,1.69-5.36
		c0.236-0.889,0.549-1.734,0.724-2.649c0.54-2.771,0.88-5.613,0.88-8.542c0-2.806-0.27-5.595-0.811-8.35
		c12.961-8.201,21.005-22.39,21.005-37.948c0-5.761-1.124-11.426-3.285-16.734c4.732-4.445,8.001-10.197,9.343-16.499
		c0.444-2.101,0.68-4.262,0.68-6.458c0-2.101-0.244-4.166-0.653-6.179c-0.131-0.654-0.375-1.255-0.549-1.9
		c-0.366-1.342-0.75-2.675-1.281-3.957c-0.306-0.724-0.697-1.395-1.055-2.092c-0.575-1.125-1.159-2.231-1.865-3.277
		c-0.471-0.697-1.003-1.342-1.525-2.004c-0.462-0.584-0.837-1.22-1.342-1.769c9.308-6.311,22.207-5.378,30.452,2.736
		c3.547,3.478,5.831,7.905,6.615,12.795c0.366,2.318,1.647,4.384,3.564,5.743c1.909,1.351,4.306,1.874,6.589,1.464
		c9.396-1.691,19.009,1.229,25.711,7.818c8.62,8.472,10.816,21.397,5.482,32.161c-1.856,3.73-0.811,8.245,2.493,10.781
		c0.915,0.706,1.812,1.447,2.658,2.275c5.403,5.316,8.384,12.368,8.384,19.863C494.568,210.064,491.588,217.115,486.185,222.432z"/>
</g>
</svg>
