<?xml version="1.0" encoding="utf-8"?>
<!-- Generator: Adobe Illustrator 16.0.0, SVG Export Plug-In . SVG Version: 6.00 Build 0)  -->
<!DOCTYPE svg PUBLIC "-//W3C//DTD SVG 1.1//EN" "http://www.w3.org/Graphics/SVG/1.1/DTD/svg11.dtd">
<svg version="1.1" id="Layer_1" xmlns="http://www.w3.org/2000/svg" xmlns:xlink="http://www.w3.org/1999/xlink" x="0px" y="0px"
	 width="512px" height="512px" viewBox="0 0 512 512" enable-background="new 0 0 512 512" xml:space="preserve">
<g>
	<g>
		<path fill="#6B625D" d="M256,350.597c-13.851,0-25.119,11.269-25.119,25.119c0,13.852,11.268,25.119,25.119,25.119
			c13.852,0,25.119-11.268,25.119-25.119C281.119,361.865,269.852,350.597,256,350.597z M256,384.802
			c-5.01,0-9.086-4.076-9.086-9.086s4.076-9.086,9.086-9.086s9.086,4.076,9.086,9.086S261.01,384.802,256,384.802z"/>
	</g>
</g>
<g>
	<g>
		<path fill="#6B625D" d="M495.432,436.109H392.482V320.962c0-17.099-10.198-32.397-25.982-38.973l-55.061-22.942
			c17.506-3.399,33.656-8.431,47.149-14.737c6.872-3.211,11.277-10.146,11.222-17.668c-0.468-63.345-7.399-107.801-21.813-139.906
			C329.8,46.205,298.848,25.653,256,25.653c-42.848,0-73.8,20.552-91.997,61.083c-14.414,32.105-21.346,76.562-21.814,139.906
			c-0.056,7.521,4.349,14.456,11.222,17.668c13.493,6.305,29.643,11.337,47.15,14.737l-55.06,22.941
			c-15.784,6.578-25.983,21.875-25.983,38.974v115.147H16.568C7.432,436.109,0,443.541,0,452.676v17.103
			c0,9.136,7.432,16.567,16.568,16.567h478.864c9.137,0,16.568-7.432,16.568-16.567v-17.103
			C512,443.541,504.568,436.109,495.432,436.109z M322.336,280.957l37.997,15.832c9.791,4.079,16.117,13.567,16.117,24.173v115.147
			h-20.077c1.098-2.82,1.707-5.883,1.707-9.086V324.409c0-13.852-11.268-25.119-25.119-25.119h-27.238
			C311.518,293.621,317.07,287.5,322.336,280.957z M226.232,250.3v-4.847l11.195,6.219c5.815,3.23,12.194,4.846,18.572,4.846
			s12.758-1.616,18.571-4.846l11.195-6.219v4.847c0,9.368,5.588,17.748,14.233,21.351l6.873,2.865
			c-7.863,9.32-16.351,17.621-25.296,24.775h-51.155c-8.946-7.154-17.434-15.455-25.296-24.775l6.873-2.865
			C220.645,268.048,226.232,259.667,226.232,250.3z M205.857,215.79c-6.43-3.572-10.666-10.079-11.333-17.405l-5.394-59.333
			c20.442-2.347,74.938-9.863,108.565-26.302c4.212,7.464,12.123,18.052,25.35,24.352l-5.57,61.283
			c-0.666,7.326-4.902,13.833-11.332,17.405l-39.356,21.865c-6.754,3.752-14.818,3.752-21.573,0L205.857,215.79z M332.96,315.324
			c5.011,0,9.086,4.076,9.086,9.086v102.614c0,5.01-4.075,9.086-9.086,9.086H179.04c-5.01,0-9.086-4.076-9.086-9.086V324.409
			c0-5.01,4.076-9.086,9.086-9.086L332.96,315.324L332.96,315.324z M160.196,229.783c-1.209-0.564-1.984-1.751-1.975-3.022
			c0.451-61.044,6.935-103.452,20.407-133.458C194.223,58.571,219.531,41.687,256,41.687s61.777,16.884,77.371,51.617
			c13.472,30.007,19.956,72.413,20.406,133.458c0.011,1.271-0.766,2.457-1.976,3.023c-13.975,6.53-31.219,11.595-50.002,14.708
			v-7.949l12.13-6.738c11.071-6.151,18.366-17.355,19.514-29.969l6.109-67.202c0.338-3.705-1.92-7.155-5.449-8.331
			c-18.428-6.143-25.104-25.002-25.156-25.157c-0.771-2.307-2.543-4.14-4.824-4.983c-2.281-0.843-4.821-0.607-6.906,0.645
			c-35.763,21.458-116.698,29.044-117.511,29.118c-4.409,0.402-7.659,4.3-7.258,8.709l6.11,67.202
			c1.147,12.614,8.441,23.817,19.514,29.969l12.128,6.737v7.949C191.415,241.378,174.171,236.313,160.196,229.783z M135.551,320.962
			c0-10.605,6.326-20.094,16.116-24.173l37.997-15.832c5.265,6.544,10.819,12.664,16.613,18.334H179.04
			c-13.851,0-25.119,11.268-25.119,25.119v102.614c0,3.202,0.609,6.266,1.707,9.086h-20.077V320.962z M495.967,469.779
			c0,0.295-0.239,0.533-0.534,0.533H16.568c-0.295,0-0.534-0.238-0.534-0.533v-17.103c0-0.295,0.239-0.534,0.534-0.534h478.864
			c0.295,0,0.534,0.239,0.534,0.534L495.967,469.779L495.967,469.779z"/>
	</g>
</g>
</svg>
